<?xml version="1.0" encoding="UTF-8"?>
<!DOCTYPE svg PUBLIC "-//W3C//DTD SVG 1.1//EN" "http://www.w3.org/Graphics/SVG/1.1/DTD/svg11.dtd">
<svg xmlns="http://www.w3.org/2000/svg" version="1.1" width="64px" height="64px" style="shape-rendering:geometricPrecision; text-rendering:geometricPrecision; image-rendering:optimizeQuality; fill-rule:evenodd; clip-rule:evenodd" xmlns:xlink="http://www.w3.org/1999/xlink">
<g><path style="opacity:0.894" fill="#2567ff" d="M 40.5,6.5 C 38.5,7.16667 36.5,7.83333 34.5,8.5C 27.1186,7.36601 20.7853,9.36601 15.5,14.5C 14.1667,14.5 12.8333,14.5 11.5,14.5C 19.3207,5.7935 28.9873,3.12683 40.5,6.5 Z"/></g>
<g><path style="opacity:0.747" fill="#2b62ff" d="M 40.5,6.5 C 44.5365,7.84971 47.8699,10.183 50.5,13.5C 49.791,14.404 48.791,14.7373 47.5,14.5C 43.8212,11.1617 39.4879,9.16169 34.5,8.5C 36.5,7.83333 38.5,7.16667 40.5,6.5 Z"/></g>
<g><path style="opacity:0.946" fill="#465bff" d="M 43.5,20.5 C 35.5,20.5 27.5,20.5 19.5,20.5C 20.8062,19.5326 21.4729,18.1993 21.5,16.5C 28.1667,16.5 34.8333,16.5 41.5,16.5C 41.5271,18.1993 42.1938,19.5326 43.5,20.5 Z"/></g>
<g><path style="opacity:0.876" fill="#4658ff" d="M 50.5,13.5 C 53.7855,16.4 55.7855,20.0666 56.5,24.5C 55.5,24.5 54.5,24.5 53.5,24.5C 52.5173,20.5311 50.5173,17.1977 47.5,14.5C 48.791,14.7373 49.791,14.404 50.5,13.5 Z"/></g>
<g><path style="opacity:0.777" fill="#4956ff" d="M 11.5,14.5 C 12.8333,14.5 14.1667,14.5 15.5,14.5C 12.4827,17.1977 10.4827,20.5311 9.5,24.5C 8.5,24.5 7.5,24.5 6.5,24.5C 6.65861,20.3256 8.32528,16.9922 11.5,14.5 Z"/></g>
<g><path style="opacity:0.909" fill="#4f55ff" d="M 19.5,20.5 C 27.5,20.5 35.5,20.5 43.5,20.5C 43.5,21.8333 43.5,23.1667 43.5,24.5C 42.8333,24.5 42.1667,24.5 41.5,24.5C 41.5858,23.5041 41.2524,22.6708 40.5,22C 34.5,21.3333 28.5,21.3333 22.5,22C 21.7476,22.6708 21.4142,23.5041 21.5,24.5C 20.8333,24.5 20.1667,24.5 19.5,24.5C 19.5,23.1667 19.5,21.8333 19.5,20.5 Z"/></g>
<g><path style="opacity:0.875" fill="#a3bafe" d="M 23.5,23.5 C 25.5273,23.3379 27.5273,23.5045 29.5,24C 27.6667,25.8333 25.8333,27.6667 24,29.5C 23.5045,27.5273 23.3379,25.5273 23.5,23.5 Z"/></g>
<g><path style="opacity:0.78" fill="#654bff" d="M 6.5,24.5 C 7.5,24.5 8.5,24.5 9.5,24.5C 8.61197,27.0545 8.27863,29.7212 8.5,32.5C 7.5,31.1667 6.5,31.1667 5.5,32.5C 5.1936,29.6146 5.52693,26.9479 6.5,24.5 Z"/></g>
<g><path style="opacity:0.974" fill="#7046ff" d="M 53.5,24.5 C 54.5,24.5 55.5,24.5 56.5,24.5C 57.8333,29.1667 57.8333,33.8333 56.5,38.5C 55.5084,38.6716 54.8417,38.3382 54.5,37.5C 54.7693,33.0685 54.436,28.7352 53.5,24.5 Z"/></g>
<g><path style="opacity:1" fill="#7d42fe" d="M 19.5,24.5 C 20.1667,24.5 20.8333,24.5 21.5,24.5C 21.5,30.1667 21.5,35.8333 21.5,41.5C 20.8333,41.5 20.1667,41.5 19.5,41.5C 19.5,35.8333 19.5,30.1667 19.5,24.5 Z"/></g>
<g><path style="opacity:1" fill="#7d42fe" d="M 41.5,24.5 C 42.1667,24.5 42.8333,24.5 43.5,24.5C 43.5,30.1667 43.5,35.8333 43.5,41.5C 42.8333,41.5 42.1667,41.5 41.5,41.5C 41.5,35.8333 41.5,30.1667 41.5,24.5 Z"/></g>
<g><path style="opacity:0.626" fill="#9737ff" d="M 41.5,41.5 C 42.1667,41.5 42.8333,41.5 43.5,41.5C 43.9231,44.2882 42.9231,46.2882 40.5,47.5C 37.624,45.5631 34.624,43.8964 31.5,42.5C 28.376,43.8964 25.376,45.5631 22.5,47.5C 20.0769,46.2882 19.0769,44.2882 19.5,41.5C 20.1667,41.5 20.8333,41.5 21.5,41.5C 21.3691,42.3764 21.7025,43.0431 22.5,43.5C 25.2652,41.3994 28.2652,39.7327 31.5,38.5C 34.7348,39.7327 37.7348,41.3994 40.5,43.5C 41.2975,43.0431 41.6309,42.3764 41.5,41.5 Z"/></g>
<g><path style="opacity:0.731" fill="#9a36ff" d="M 8.5,32.5 C 8.57517,38.3105 10.5752,43.3105 14.5,47.5C 14.1667,48.5 13.5,49.1667 12.5,49.5C 7.65674,44.9941 5.3234,39.3274 5.5,32.5C 6.5,31.1667 7.5,31.1667 8.5,32.5 Z"/></g>
<g><path style="opacity:0.811" fill="#a731ff" d="M 54.5,37.5 C 54.8417,38.3382 55.5084,38.6716 56.5,38.5C 55.479,45.5104 51.8123,50.5104 45.5,53.5C 44.5,53.1667 43.8333,52.5 43.5,51.5C 48.721,47.9579 52.3877,43.2913 54.5,37.5 Z"/></g>
<g><path style="opacity:0.809" fill="#bc27ff" d="M 14.5,47.5 C 23.2405,55.1475 32.9071,56.4808 43.5,51.5C 43.8333,52.5 44.5,53.1667 45.5,53.5C 35.5528,58.9157 25.5528,58.749 15.5,53C 14.2899,51.9609 13.2899,50.7942 12.5,49.5C 13.5,49.1667 14.1667,48.5 14.5,47.5 Z"/></g>
</svg>
