<?xml version="1.0" encoding="UTF-8"?>
<!DOCTYPE svg PUBLIC "-//W3C//DTD SVG 1.1//EN" "http://www.w3.org/Graphics/SVG/1.1/DTD/svg11.dtd">
<svg xmlns="http://www.w3.org/2000/svg" version="1.1" width="64px" height="64px" style="shape-rendering:geometricPrecision; text-rendering:geometricPrecision; image-rendering:optimizeQuality; fill-rule:evenodd; clip-rule:evenodd" xmlns:xlink="http://www.w3.org/1999/xlink">
<g><path style="opacity:0.813" fill="#2169ff" d="M 52.5,10.5 C 51.8333,10.5 51.1667,10.5 50.5,10.5C 50.0472,9.54163 49.3805,8.7083 48.5,8C 44.9733,7.1925 41.6399,7.35916 38.5,8.5C 37.5,8.5 36.5,8.5 35.5,8.5C 34.5084,8.32842 33.8417,8.66175 33.5,9.5C 32.609,8.89022 31.609,8.55688 30.5,8.5C 30.4142,7.5041 30.7476,6.67076 31.5,6C 38.1667,5.33333 44.8333,5.33333 51.5,6C 52.3802,7.35613 52.7135,8.85613 52.5,10.5 Z"/></g>
<g><path style="opacity:0.936" fill="#2a66ff" d="M 30.5,8.5 C 31.609,8.55688 32.609,8.89022 33.5,9.5C 34.4916,9.67158 35.1583,9.33825 35.5,8.5C 36.5,8.5 37.5,8.5 38.5,8.5C 38.5,9.16667 38.5,9.83333 38.5,10.5C 29.8333,10.5 21.1667,10.5 12.5,10.5C 18.5,9.83333 24.5,9.16667 30.5,8.5 Z"/></g>
<g><path style="opacity:0.982" fill="#2f63ff" d="M 12.5,10.5 C 21.1667,10.5 29.8333,10.5 38.5,10.5C 38.5,11.1667 38.5,11.8333 38.5,12.5C 37.8333,12.5 37.1667,12.5 36.5,12.5C 29.6791,11.3454 22.6791,11.1787 15.5,12C 14.3094,12.6979 13.3094,13.5313 12.5,14.5C 11.8333,14.5 11.1667,14.5 10.5,14.5C 10.2291,12.6203 10.8958,11.287 12.5,10.5 Z"/></g>
<g><path style="opacity:1" fill="#3461ff" d="M 50.5,10.5 C 51.1667,10.5 51.8333,10.5 52.5,10.5C 52.5,11.8333 52.5,13.1667 52.5,14.5C 51.8333,14.5 51.1667,14.5 50.5,14.5C 50.5,13.1667 50.5,11.8333 50.5,10.5 Z"/></g>
<g><path style="opacity:0.995" fill="#3a5eff" d="M 36.5,12.5 C 37.1667,12.5 37.8333,12.5 38.5,12.5C 38.5,14.1667 38.5,15.8333 38.5,17.5C 37.8333,17.5 37.1667,17.5 36.5,17.5C 33.572,16.1803 30.2386,15.5136 26.5,15.5C 22.7614,15.5136 19.428,16.1803 16.5,17.5C 15.8333,17.5 15.1667,17.5 14.5,17.5C 14.5,16.1667 14.5,14.8333 14.5,13.5C 22.0191,13.825 29.3524,13.4916 36.5,12.5 Z"/></g>
<g><path style="opacity:1" fill="#445aff" d="M 10.5,14.5 C 11.1667,14.5 11.8333,14.5 12.5,14.5C 12.5,16.5 12.5,18.5 12.5,20.5C 11.8333,20.5 11.1667,20.5 10.5,20.5C 10.5,18.5 10.5,16.5 10.5,14.5 Z"/></g>
<g><path style="opacity:1" fill="#445aff" d="M 50.5,14.5 C 51.1667,14.5 51.8333,14.5 52.5,14.5C 52.5,16.5 52.5,18.5 52.5,20.5C 51.8333,20.5 51.1667,20.5 50.5,20.5C 50.5,18.5 50.5,16.5 50.5,14.5 Z"/></g>
<g><path style="opacity:1" fill="#4f56ff" d="M 14.5,17.5 C 15.1667,17.5 15.8333,17.5 16.5,17.5C 16.5,19.5 16.5,21.5 16.5,23.5C 15.8333,23.5 15.1667,23.5 14.5,23.5C 14.5,21.5 14.5,19.5 14.5,17.5 Z"/></g>
<g><path style="opacity:1" fill="#4f56ff" d="M 36.5,17.5 C 37.1667,17.5 37.8333,17.5 38.5,17.5C 38.5,19.5 38.5,21.5 38.5,23.5C 37.8333,23.5 37.1667,23.5 36.5,23.5C 36.5,21.5 36.5,19.5 36.5,17.5 Z"/></g>
<g><path style="opacity:1" fill="#87c1fe" d="M 32.5,23.5 C 28.5,23.5 24.5,23.5 20.5,23.5C 22.0478,22.2057 24.0478,21.5391 26.5,21.5C 28.9522,21.5391 30.9522,22.2057 32.5,23.5 Z"/></g>
<g><path style="opacity:0.83" fill="#5851ff" d="M 50.5,20.5 C 51.1667,20.5 51.8333,20.5 52.5,20.5C 52.5,22.1667 52.5,23.8333 52.5,25.5C 50.1667,25.5 47.8333,25.5 45.5,25.5C 45.1667,24.1667 44.8333,24.1667 44.5,25.5C 41.8333,25.5 39.1667,25.5 36.5,25.5C 36.5,24.8333 36.5,24.1667 36.5,23.5C 37.1667,23.5 37.8333,23.5 38.5,23.5C 38.56,24.0431 38.8933,24.3764 39.5,24.5C 42.8333,20.5 46.1667,20.5 49.5,24.5C 50.4287,23.3112 50.762,21.9778 50.5,20.5 Z"/></g>
<g><path style="opacity:1" fill="#5752fe" d="M 10.5,20.5 C 11.1667,20.5 11.8333,20.5 12.5,20.5C 12.5,22.1667 12.5,23.8333 12.5,25.5C 11.8333,25.5 11.1667,25.5 10.5,25.5C 10.5,23.8333 10.5,22.1667 10.5,20.5 Z"/></g>
<g><path style="opacity:1" fill="#abb8fe" d="M 20.5,23.5 C 24.5,23.5 28.5,23.5 32.5,23.5C 32.5,24.1667 32.5,24.8333 32.5,25.5C 28.5,25.5 24.5,25.5 20.5,25.5C 20.5,24.8333 20.5,24.1667 20.5,23.5 Z"/></g>
<g><path style="opacity:1" fill="#5e4ffe" d="M 14.5,23.5 C 15.1667,23.5 15.8333,23.5 16.5,23.5C 16.5,24.8333 16.5,26.1667 16.5,27.5C 15.8333,27.5 15.1667,27.5 14.5,27.5C 14.5,26.1667 14.5,24.8333 14.5,23.5 Z"/></g>
<g><path style="opacity:0.856" fill="#604dff" d="M 36.5,25.5 C 39.1667,25.5 41.8333,25.5 44.5,25.5C 44.5,26.1667 44.5,26.8333 44.5,27.5C 43.8333,27.5 43.1667,27.5 42.5,27.5C 39.689,29.0893 37.689,28.4226 36.5,25.5 Z"/></g>
<g><path style="opacity:0.86" fill="#5e4dff" d="M 45.5,25.5 C 47.8333,25.5 50.1667,25.5 52.5,25.5C 52.5,26.8333 51.8333,27.5 50.5,27.5C 49.1667,27.5 47.8333,27.5 46.5,27.5C 46.1667,26.8333 45.8333,26.1667 45.5,25.5 Z"/></g>
<g><path style="opacity:0.979" fill="#d0b0fe" d="M 20.5,25.5 C 24.5,25.5 28.5,25.5 32.5,25.5C 30.9522,26.7943 28.9522,27.4609 26.5,27.5C 24.0478,27.4609 22.0478,26.7943 20.5,25.5 Z"/></g>
<g><path style="opacity:1" fill="#654cfe" d="M 10.5,25.5 C 11.1667,25.5 11.8333,25.5 12.5,25.5C 12.5,26.8333 12.5,28.1667 12.5,29.5C 11.8333,29.5 11.1667,29.5 10.5,29.5C 10.5,28.1667 10.5,26.8333 10.5,25.5 Z"/></g>
<g><path style="opacity:1" fill="#6e48fe" d="M 14.5,27.5 C 15.1667,27.5 15.8333,27.5 16.5,27.5C 16.5,29.8333 16.5,32.1667 16.5,34.5C 15.8333,34.5 15.1667,34.5 14.5,34.5C 14.5,32.1667 14.5,29.8333 14.5,27.5 Z"/></g>
<g><path style="opacity:1" fill="#6e49fe" d="M 20.5,29.5 C 24.5546,29.1758 28.5546,29.5091 32.5,30.5C 30.5,30.8333 28.5,31.1667 26.5,31.5C 24.0478,31.4609 22.0478,30.7943 20.5,29.5 Z"/></g>
<g><path style="opacity:1" fill="#6e48fe" d="M 42.5,27.5 C 43.1667,27.5 43.8333,27.5 44.5,27.5C 44.5,29.8333 44.5,32.1667 44.5,34.5C 43.8333,34.5 43.1667,34.5 42.5,34.5C 42.5,32.1667 42.5,29.8333 42.5,27.5 Z"/></g>
<g><path style="opacity:1" fill="#6e48fe" d="M 46.5,27.5 C 47.8333,27.5 49.1667,27.5 50.5,27.5C 48.8516,29.4559 48.1849,31.7892 48.5,34.5C 47.8333,34.5 47.1667,34.5 46.5,34.5C 46.5,32.1667 46.5,29.8333 46.5,27.5 Z"/></g>
<g><path style="opacity:1" fill="#7346fe" d="M 10.5,29.5 C 11.1667,29.5 11.8333,29.5 12.5,29.5C 12.5,31.1667 12.5,32.8333 12.5,34.5C 11.8333,34.5 11.1667,34.5 10.5,34.5C 10.5,32.8333 10.5,31.1667 10.5,29.5 Z"/></g>
<g><path style="opacity:1" fill="#7b42fe" d="M 20.5,33.5 C 26.5368,33.1707 32.5368,33.5041 38.5,34.5C 35.5,34.8333 32.5,35.1667 29.5,35.5C 26.0866,35.483 23.0866,34.8164 20.5,33.5 Z"/></g>
<g><path style="opacity:1" fill="#863efe" d="M 10.5,34.5 C 11.1667,34.5 11.8333,34.5 12.5,34.5C 12.5,36.5 12.5,38.5 12.5,40.5C 11.8333,40.5 11.1667,40.5 10.5,40.5C 10.5,38.5 10.5,36.5 10.5,34.5 Z"/></g>
<g><path style="opacity:1" fill="#863efe" d="M 14.5,34.5 C 15.1667,34.5 15.8333,34.5 16.5,34.5C 16.5,36.5 16.5,38.5 16.5,40.5C 15.8333,40.5 15.1667,40.5 14.5,40.5C 14.5,38.5 14.5,36.5 14.5,34.5 Z"/></g>
<g><path style="opacity:1" fill="#863efe" d="M 42.5,34.5 C 43.1667,34.5 43.8333,34.5 44.5,34.5C 44.5,36.5 44.5,38.5 44.5,40.5C 43.8333,40.5 43.1667,40.5 42.5,40.5C 42.5,38.5 42.5,36.5 42.5,34.5 Z"/></g>
<g><path style="opacity:1" fill="#863efe" d="M 46.5,34.5 C 47.1667,34.5 47.8333,34.5 48.5,34.5C 48.5,36.5 48.5,38.5 48.5,40.5C 47.8333,40.5 47.1667,40.5 46.5,40.5C 46.5,38.5 46.5,36.5 46.5,34.5 Z"/></g>
<g><path style="opacity:1" fill="#9637fe" d="M 10.5,40.5 C 11.1667,40.5 11.8333,40.5 12.5,40.5C 12.5,41.8333 12.5,43.1667 12.5,44.5C 11.8333,44.5 11.1667,44.5 10.5,44.5C 10.5,43.1667 10.5,41.8333 10.5,40.5 Z"/></g>
<g><path style="opacity:0.945" fill="#9537fe" d="M 14.5,40.5 C 15.1667,40.5 15.8333,40.5 16.5,40.5C 25.1667,41.8333 33.8333,41.8333 42.5,40.5C 43.1667,40.5 43.8333,40.5 44.5,40.5C 44.5,41.5 44.5,42.5 44.5,43.5C 34.5,43.5 24.5,43.5 14.5,43.5C 14.5,42.5 14.5,41.5 14.5,40.5 Z"/></g>
<g><path style="opacity:0.97" fill="#a431fe" d="M 46.5,40.5 C 47.1667,40.5 47.8333,40.5 48.5,40.5C 48.5,43.1667 48.5,45.8333 48.5,48.5C 35.8333,48.5 23.1667,48.5 10.5,48.5C 10.5,47.1667 10.5,45.8333 10.5,44.5C 11.1667,44.5 11.8333,44.5 12.5,44.5C 12.5,45.5 12.5,46.5 12.5,47.5C 22.8387,47.6665 33.172,47.4998 43.5,47C 45.915,45.5347 46.915,43.368 46.5,40.5 Z"/></g>
<g><path style="opacity:0.974" fill="#aa2eff" d="M 10.5,48.5 C 23.1667,48.5 35.8333,48.5 48.5,48.5C 48.5,49.1667 48.5,49.8333 48.5,50.5C 47.8333,50.5 47.1667,50.5 46.5,50.5C 35.628,49.2014 24.628,49.2014 13.5,50.5C 12.5,50.5 11.5,50.5 10.5,50.5C 10.5,49.8333 10.5,49.1667 10.5,48.5 Z"/></g>
<g><path style="opacity:0.939" fill="#bf25ff" d="M 10.5,50.5 C 11.5,50.5 12.5,50.5 13.5,50.5C 13.2267,52.451 13.8934,53.951 15.5,55C 24.8333,55.6667 34.1667,55.6667 43.5,55C 45.3757,54.0816 46.3757,52.5816 46.5,50.5C 47.1667,50.5 47.8333,50.5 48.5,50.5C 48.8957,53.0444 48.229,55.2111 46.5,57C 35.1667,57.6667 23.8333,57.6667 12.5,57C 10.771,55.2111 10.1043,53.0444 10.5,50.5 Z"/></g>
</svg>
