<?xml version="1.0" encoding="UTF-8"?>
<!DOCTYPE svg PUBLIC "-//W3C//DTD SVG 1.1//EN" "http://www.w3.org/Graphics/SVG/1.1/DTD/svg11.dtd">
<svg xmlns="http://www.w3.org/2000/svg" version="1.1" width="24px" height="24px" style="shape-rendering:geometricPrecision; text-rendering:geometricPrecision; image-rendering:optimizeQuality; fill-rule:evenodd; clip-rule:evenodd" xmlns:xlink="http://www.w3.org/1999/xlink">
<g><path style="opacity:0.671" fill="#000000" d="M 5.5,1.5 C 15.9627,0.0940107 19.6293,4.42734 16.5,14.5C 19.3905,16.0429 21.0571,18.3762 21.5,21.5C 18.3762,21.0571 16.0429,19.3905 14.5,16.5C 4.26415,19.6394 0.0974814,15.9727 2,5.5C 2.68972,3.64977 3.85639,2.31643 5.5,1.5 Z M 6.5,4.5 C 14.4863,3.99804 16.4863,7.16471 12.5,14C 4.42402,14.8047 2.42402,11.638 6.5,4.5 Z"/></g>
<g><path style="opacity:0.766" fill="#000000" d="M 5.5,8.5 C 7.33702,8.63945 7.67036,9.30612 6.5,10.5C 5.70245,10.0431 5.36912,9.37644 5.5,8.5 Z"/></g>
<g><path style="opacity:0.766" fill="#000000" d="M 8.5,8.5 C 10.337,8.63945 10.6704,9.30612 9.5,10.5C 8.70245,10.0431 8.36912,9.37644 8.5,8.5 Z"/></g>
<g><path style="opacity:0.766" fill="#000000" d="M 11.5,8.5 C 13.337,8.63945 13.6704,9.30612 12.5,10.5C 11.7025,10.0431 11.3691,9.37644 11.5,8.5 Z"/></g>
</svg>
