<?xml version="1.0" standalone="no"?>
<!DOCTYPE svg PUBLIC "-//W3C//DTD SVG 20010904//EN"
 "http://www.w3.org/TR/2001/REC-SVG-20010904/DTD/svg10.dtd">
<svg version="1.0" xmlns="http://www.w3.org/2000/svg"
 width="50.000000pt" height="50.000000pt" viewBox="0 0 50.000000 50.000000"
 preserveAspectRatio="xMidYMid meet">

<g transform="translate(0.000000,50.000000) scale(0.100000,-0.100000)"
fill="#000000" stroke="none">
<path d="M10 466 c0 -9 12 -16 32 -18 33 -3 33 -4 70 -123 24 -77 35 -131 32
-151 -9 -53 8 -58 164 -50 75 4 139 9 141 12 3 2 0 9 -6 15 -6 6 -50 7 -134 1
-108 -8 -155 -4 -138 12 2 2 65 12 139 21 74 9 138 19 142 23 7 8 38 155 38
183 0 17 -12 19 -182 21 l-182 3 -10 33 c-8 30 -11 32 -57 32 -36 0 -49 -4
-49 -14z m230 -121 c0 -35 0 -35 -45 -35 -29 0 -45 4 -45 13 0 6 -3 22 -6 35
-6 21 -3 22 45 22 l51 0 0 -35z m100 0 c0 -34 -1 -35 -40 -35 -39 0 -40 1 -40
35 0 34 1 35 40 35 39 0 40 -1 40 -35z m110 23 c-1 -45 -13 -58 -51 -58 -38 0
-39 1 -39 35 0 35 0 35 45 35 29 0 45 -4 45 -12z m-210 -118 c0 -37 -2 -40
-28 -40 -24 0 -29 5 -39 40 l-10 40 38 0 c39 0 39 0 39 -40z m98 8 c-3 -30 -6
-33 -40 -36 -37 -3 -38 -3 -38 32 0 35 1 36 41 36 39 0 40 -1 37 -32z m90 5
c-2 -23 -8 -29 -35 -31 -31 -3 -33 -1 -33 27 0 29 3 31 36 31 33 0 35 -2 32
-27z"/>
<path d="M145 84 c-19 -20 -16 -43 8 -58 37 -23 77 35 41 61 -23 17 -29 16
-49 -3z"/>
<path d="M380 80 c-28 -28 -11 -63 28 -58 21 2 28 9 30 30 5 39 -30 56 -58 28z"/>
</g>
</svg>
