<?xml version="1.0" encoding="UTF-8"?>
<!DOCTYPE svg PUBLIC "-//W3C//DTD SVG 1.1//EN" "http://www.w3.org/Graphics/SVG/1.1/DTD/svg11.dtd">
<svg xmlns="http://www.w3.org/2000/svg" version="1.1" width="64px" height="64px" style="shape-rendering:geometricPrecision; text-rendering:geometricPrecision; image-rendering:optimizeQuality; fill-rule:evenodd; clip-rule:evenodd" xmlns:xlink="http://www.w3.org/1999/xlink">
<g><path style="opacity:1" fill="#98aefe" d="M 33.5,10.5 C 29.5,10.5 25.5,10.5 21.5,10.5C 23.0478,9.20574 25.0478,8.53907 27.5,8.5C 29.9522,8.53907 31.9522,9.20574 33.5,10.5 Z"/></g>
<g><path style="opacity:0.953" fill="#2268ff" d="M 19.5,12.5 C 18.5,12.5 17.5,12.5 16.5,12.5C 13.8333,12.5 11.1667,12.5 8.5,12.5C 7.5,12.5 6.5,12.5 5.5,12.5C 7.39721,11.1952 9.73054,10.5286 12.5,10.5C 15.2695,10.5286 17.6028,11.1952 19.5,12.5 Z"/></g>
<g><path style="opacity:1" fill="#aca7fe" d="M 21.5,10.5 C 25.5,10.5 29.5,10.5 33.5,10.5C 33.5,11.1667 33.5,11.8333 33.5,12.5C 29.5,12.5 25.5,12.5 21.5,12.5C 21.5,11.8333 21.5,11.1667 21.5,10.5 Z"/></g>
<g><path style="opacity:1" fill="#c19ffe" d="M 21.5,12.5 C 25.5,12.5 29.5,12.5 33.5,12.5C 33.5,13.1667 33.5,13.8333 33.5,14.5C 29.5,14.5 25.5,14.5 21.5,14.5C 21.5,13.8333 21.5,13.1667 21.5,12.5 Z"/></g>
<g><path style="opacity:1" fill="#c19ffe" d="M 45.5,14.5 C 42.1667,14.5 38.8333,14.5 35.5,14.5C 36.6936,13.2227 38.3603,12.5561 40.5,12.5C 42.6397,12.5561 44.3064,13.2227 45.5,14.5 Z"/></g>
<g><path style="opacity:0.966" fill="#2f63ff" d="M 5.5,12.5 C 6.5,12.5 7.5,12.5 8.5,12.5C 9.51448,13.7647 11.0145,14.4313 13,14.5C 14.5,14.3333 16,14.1667 17.5,14C 16.944,13.6174 16.6107,13.1174 16.5,12.5C 17.5,12.5 18.5,12.5 19.5,12.5C 19.5,14.5 19.5,16.5 19.5,18.5C 18.8333,18.5 18.1667,18.5 17.5,18.5C 13.9707,16.5772 9.9707,15.9106 5.5,16.5C 5.5,15.1667 5.5,13.8333 5.5,12.5 Z M 8.5,12.5 C 11.1667,12.5 13.8333,12.5 16.5,12.5C 16.6107,13.1174 16.944,13.6174 17.5,14C 16,14.1667 14.5,14.3333 13,14.5C 11.0145,14.4313 9.51448,13.7647 8.5,12.5 Z"/></g>
<g><path style="opacity:1" fill="#d597fe" d="M 21.5,14.5 C 25.5,14.5 29.5,14.5 33.5,14.5C 31.9522,15.7943 29.9522,16.4609 27.5,16.5C 25.0478,16.4609 23.0478,15.7943 21.5,14.5 Z"/></g>
<g><path style="opacity:1" fill="#d597fe" d="M 35.5,14.5 C 38.8333,14.5 42.1667,14.5 45.5,14.5C 44.3064,15.7773 42.6397,16.4439 40.5,16.5C 38.3603,16.4439 36.6936,15.7773 35.5,14.5 Z"/></g>
<g><path style="opacity:0.987" fill="#415bff" d="M 17.5,18.5 C 18.1667,18.5 18.8333,18.5 19.5,18.5C 32.1667,18.5 44.8333,18.5 57.5,18.5C 57.5,19.8333 57.5,21.1667 57.5,22.5C 56.8333,22.5 56.1667,22.5 55.5,22.5C 55.3893,21.8826 55.056,21.3826 54.5,21C 42.8381,20.5001 31.1714,20.3335 19.5,20.5C 18.8333,20.5 18.1667,20.5 17.5,20.5C 17.5,19.8333 17.5,19.1667 17.5,18.5 Z"/></g>
<g><path style="opacity:1" fill="#5055ff" d="M 17.5,20.5 C 18.1667,20.5 18.8333,20.5 19.5,20.5C 27.4595,22.1486 35.7929,23.1486 44.5,23.5C 35.5246,24.4982 26.5246,24.8315 17.5,24.5C 17.5,23.1667 17.5,21.8333 17.5,20.5 Z"/></g>
<g><path style="opacity:0.616" fill="#5a51fe" d="M 55.5,22.5 C 56.1667,22.5 56.8333,22.5 57.5,22.5C 57.7947,24.7354 57.4614,26.7354 56.5,28.5C 55.5,28.5 54.5,28.5 53.5,28.5C 54.7298,26.7028 55.3964,24.7028 55.5,22.5 Z"/></g>
<g><path style="opacity:1" fill="#604ffe" d="M 17.5,26.5 C 24.8635,26.1694 32.1968,26.5027 39.5,27.5C 35.8333,27.8333 32.1667,28.1667 28.5,28.5C 24.4348,28.4888 20.7681,27.8222 17.5,26.5 Z"/></g>
<g><path style="opacity:1" fill="#6f47fe" d="M 17.5,30.5 C 22.8746,30.1718 28.2079,30.5052 33.5,31.5C 30.8333,31.8333 28.1667,32.1667 25.5,32.5C 22.4098,32.4783 19.7432,31.8117 17.5,30.5 Z"/></g>
<g><path style="opacity:0.662" fill="#6e48ff" d="M 53.5,28.5 C 54.5,28.5 55.5,28.5 56.5,28.5C 55.1092,30.8903 53.1092,32.5569 50.5,33.5C 49.1667,33.5 47.8333,33.5 46.5,33.5C 48.5496,31.4525 50.883,29.7859 53.5,28.5 Z"/></g>
<g><path style="opacity:1" fill="#7f41fe" d="M 17.5,34.5 C 20.8984,34.1796 24.2317,34.513 27.5,35.5C 25.8333,35.8333 24.1667,36.1667 22.5,36.5C 20.3603,36.4439 18.6936,35.7773 17.5,34.5 Z"/></g>
<g><path style="opacity:0.743" fill="#7c41ff" d="M 46.5,33.5 C 47.8333,33.5 49.1667,33.5 50.5,33.5C 49.5637,34.9744 48.2303,35.9744 46.5,36.5C 45.1667,36.5 43.8333,36.5 42.5,36.5C 43.4363,35.0256 44.7697,34.0256 46.5,33.5 Z"/></g>
<g><path style="opacity:0.946" fill="#8e3aff" d="M 42.5,36.5 C 43.8333,36.5 45.1667,36.5 46.5,36.5C 45.4264,37.8846 44.0931,39.0513 42.5,40C 34.7548,40.1994 27.0881,40.6994 19.5,41.5C 18.8333,41.5 18.1667,41.5 17.5,41.5C 17.5,40.5 17.5,39.5 17.5,38.5C 24.5079,38.6663 31.5079,38.4996 38.5,38C 39.9007,37.5899 41.234,37.0899 42.5,36.5 Z"/></g>
<g><path style="opacity:0.905" fill="#a431fe" d="M 17.5,41.5 C 18.1667,41.5 18.8333,41.5 19.5,41.5C 19.7215,43.6636 20.7215,45.3303 22.5,46.5C 21.209,46.2627 20.209,46.596 19.5,47.5C 17.8212,47.2852 16.8212,47.9519 16.5,49.5C 15.5,49.5 14.5,49.5 13.5,49.5C 14.4422,46.5804 15.7755,43.9138 17.5,41.5 Z"/></g>
<g><path style="opacity:0.872" fill="#ad2cff" d="M 41.5,49.5 C 40.391,49.5569 39.391,49.8902 38.5,50.5C 38.5,49.5 38.5,48.5 38.5,47.5C 36.5168,47.1568 35.1834,47.8235 34.5,49.5C 29.737,49.2256 25.0704,49.559 20.5,50.5C 20.7373,49.209 20.404,48.209 19.5,47.5C 20.209,46.596 21.209,46.2627 22.5,46.5C 23.8787,47.6089 25.5453,48.2755 27.5,48.5C 30.4951,47.2052 33.4951,45.8719 36.5,44.5C 39.8446,44.5112 41.5113,46.1779 41.5,49.5 Z"/></g>
<g><path style="opacity:0.519" fill="#be25ff" d="M 13.5,49.5 C 14.5,49.5 15.5,49.5 16.5,49.5C 16.62,50.5862 17.2867,51.2528 18.5,51.5C 19.4164,51.4573 20.0831,51.1239 20.5,50.5C 25.0704,49.559 29.737,49.2256 34.5,49.5C 34.62,50.5862 35.2867,51.2528 36.5,51.5C 37.4164,51.4573 38.0831,51.1239 38.5,50.5C 39.391,49.8902 40.391,49.5569 41.5,49.5C 41.5113,52.8221 39.8446,54.4888 36.5,54.5C 33.4951,53.1281 30.4951,51.7948 27.5,50.5C 24.7708,50.5047 22.7708,51.6713 21.5,54C 16.8408,55.6514 14.1742,54.1514 13.5,49.5 Z"/></g>
</svg>
