<?xml version="1.0" encoding="UTF-8"?>
<!DOCTYPE svg PUBLIC "-//W3C//DTD SVG 1.1//EN" "http://www.w3.org/Graphics/SVG/1.1/DTD/svg11.dtd">
<svg xmlns="http://www.w3.org/2000/svg" version="1.1" width="64px" height="64px" style="shape-rendering:geometricPrecision; text-rendering:geometricPrecision; image-rendering:optimizeQuality; fill-rule:evenodd; clip-rule:evenodd" xmlns:xlink="http://www.w3.org/1999/xlink">
<g><path style="opacity:0.95" fill="#2868ff" d="M 41.5,16.5 C 40.5,16.5 39.5,16.5 38.5,16.5C 37.791,15.596 36.791,15.2627 35.5,15.5C 35.5,12.8333 35.5,10.1667 35.5,7.5C 32.8333,7.5 30.1667,7.5 27.5,7.5C 27.5,10.1667 27.5,12.8333 27.5,15.5C 26.5,15.5 25.5,15.5 24.5,15.5C 23.1667,15.5 21.8333,15.5 20.5,15.5C 21.6354,13.7868 23.302,13.1201 25.5,13.5C 25.5,10.8333 25.5,8.16667 25.5,5.5C 29.5,5.5 33.5,5.5 37.5,5.5C 37.5,8.16667 37.5,10.8333 37.5,13.5C 38.8734,13.3433 40.2068,13.51 41.5,14C 42.5981,14.7697 42.5981,15.603 41.5,16.5 Z"/></g>
<g><path style="opacity:0.78" fill="#4a55ff" d="M 20.5,15.5 C 21.8333,15.5 23.1667,15.5 24.5,15.5C 26.7887,17.448 29.122,19.448 31.5,21.5C 33.5916,19.3951 35.9249,17.7284 38.5,16.5C 39.5,16.5 40.5,16.5 41.5,16.5C 38.7694,20.3972 35.2694,23.3972 31,25.5C 27.0109,22.6776 23.5109,19.3442 20.5,15.5 Z"/></g>
<g><path style="opacity:0.967" fill="#654cff" d="M 57.5,33.5 C 56.8333,33.5 56.1667,33.5 55.5,33.5C 55.7135,31.8561 55.3802,30.3561 54.5,29C 39.1667,28.3333 23.8333,28.3333 8.5,29C 7.61983,30.3561 7.28649,31.8561 7.5,33.5C 6.83333,33.5 6.16667,33.5 5.5,33.5C 5.5,31.1667 5.5,28.8333 5.5,26.5C 22.8333,26.5 40.1667,26.5 57.5,26.5C 57.5,28.8333 57.5,31.1667 57.5,33.5 Z"/></g>
<g><path style="opacity:1" fill="#7147fe" d="M 12.5,29.5 C 13.5862,29.62 14.2528,30.2867 14.5,31.5C 14.1667,32.1667 13.8333,32.8333 13.5,33.5C 12.5713,32.3112 12.238,30.9778 12.5,29.5 Z"/></g>
<g><path style="opacity:1" fill="#7147fe" d="M 18.5,29.5 C 19.5862,29.62 20.2528,30.2867 20.5,31.5C 20.1667,32.1667 19.8333,32.8333 19.5,33.5C 18.5713,32.3112 18.238,30.9778 18.5,29.5 Z"/></g>
<g><path style="opacity:1" fill="#7147fe" d="M 24.5,29.5 C 25.5862,29.62 26.2528,30.2867 26.5,31.5C 26.1667,32.1667 25.8333,32.8333 25.5,33.5C 24.5713,32.3112 24.238,30.9778 24.5,29.5 Z"/></g>
<g><path style="opacity:1" fill="#7147fe" d="M 30.5,29.5 C 31.5862,29.62 32.2528,30.2867 32.5,31.5C 32.1667,32.1667 31.8333,32.8333 31.5,33.5C 30.5713,32.3112 30.238,30.9778 30.5,29.5 Z"/></g>
<g><path style="opacity:1" fill="#7147fe" d="M 36.5,29.5 C 37.5862,29.62 38.2528,30.2867 38.5,31.5C 38.1667,32.1667 37.8333,32.8333 37.5,33.5C 36.5713,32.3112 36.238,30.9778 36.5,29.5 Z"/></g>
<g><path style="opacity:1" fill="#7147fe" d="M 42.5,29.5 C 43.5862,29.62 44.2528,30.2867 44.5,31.5C 44.1667,32.1667 43.8333,32.8333 43.5,33.5C 42.5713,32.3112 42.238,30.9778 42.5,29.5 Z"/></g>
<g><path style="opacity:1" fill="#7147fe" d="M 48.5,29.5 C 49.5862,29.62 50.2528,30.2867 50.5,31.5C 50.1667,32.1667 49.8333,32.8333 49.5,33.5C 48.5713,32.3112 48.238,30.9778 48.5,29.5 Z"/></g>
<g><path style="opacity:0.963" fill="#8040fe" d="M 5.5,33.5 C 6.16667,33.5 6.83333,33.5 7.5,33.5C 23.5,34.8333 39.5,34.8333 55.5,33.5C 56.1667,33.5 56.8333,33.5 57.5,33.5C 57.5,34.5 57.5,35.5 57.5,36.5C 56.1779,36.33 55.0113,36.6634 54,37.5C 53.6481,39.2475 53.1481,40.9142 52.5,42.5C 51.1667,42.5 50.5,41.8333 50.5,40.5C 50.5,39.1667 50.5,37.8333 50.5,36.5C 37.8333,36.5 25.1667,36.5 12.5,36.5C 12.5,37.8333 12.5,39.1667 12.5,40.5C 11.5,40.5 10.5,40.5 9.5,40.5C 9.83333,37.5 8.5,36.1667 5.5,36.5C 5.5,35.5 5.5,34.5 5.5,33.5 Z"/></g>
<g><path style="opacity:1" fill="#b1a5fe" d="M 25.5,47.5 C 23.8333,47.5 22.1667,47.5 20.5,47.5C 19.612,44.9455 19.2786,42.2788 19.5,39.5C 21.5,39.5 23.5,39.5 25.5,39.5C 25.5,42.1667 25.5,44.8333 25.5,47.5 Z"/></g>
<g><path style="opacity:1" fill="#b1a5fe" d="M 33.5,47.5 C 32.1667,47.5 30.8333,47.5 29.5,47.5C 29.5,44.8333 29.5,42.1667 29.5,39.5C 30.8333,39.5 32.1667,39.5 33.5,39.5C 33.5,42.1667 33.5,44.8333 33.5,47.5 Z"/></g>
<g><path style="opacity:0.965" fill="#b0a5fe" d="M 42.5,47.5 C 40.8333,47.5 39.1667,47.5 37.5,47.5C 37.5,44.8333 37.5,42.1667 37.5,39.5C 39.5,39.5 41.5,39.5 43.5,39.5C 43.7214,42.2788 43.388,44.9455 42.5,47.5 Z"/></g>
<g><path style="opacity:0.95" fill="#bc27ff" d="M 9.5,40.5 C 10.5,40.5 11.5,40.5 12.5,40.5C 13.6727,44.16 14.6727,47.9933 15.5,52C 17.0158,53.927 19.0158,55.0936 21.5,55.5C 28.1667,52.8333 34.8333,52.8333 41.5,55.5C 43.1966,55.1012 44.8632,54.6012 46.5,54C 48.0326,49.4601 49.3659,44.9601 50.5,40.5C 50.5,41.8333 51.1667,42.5 52.5,42.5C 52.5115,47.9906 50.8449,52.8239 47.5,57C 36.8333,57.6667 26.1667,57.6667 15.5,57C 14.6667,56.1667 13.8333,55.3333 13,54.5C 11.7644,49.8133 10.5977,45.1466 9.5,40.5 Z"/></g>
<g><path style="opacity:0.913" fill="#d896fe" d="M 37.5,47.5 C 39.1667,47.5 40.8333,47.5 42.5,47.5C 42.5,48.8333 42.5,50.1667 42.5,51.5C 40.8333,51.5 39.1667,51.5 37.5,51.5C 37.5,50.1667 37.5,48.8333 37.5,47.5 Z"/></g>
<g><path style="opacity:0.892" fill="#d796fe" d="M 29.5,47.5 C 30.8333,47.5 32.1667,47.5 33.5,47.5C 33.5,48.8333 33.5,50.1667 33.5,51.5C 32.1667,51.5 30.8333,51.5 29.5,51.5C 29.5,50.1667 29.5,48.8333 29.5,47.5 Z"/></g>
<g><path style="opacity:0.911" fill="#d796fe" d="M 20.5,47.5 C 22.1667,47.5 23.8333,47.5 25.5,47.5C 25.5,48.8333 25.5,50.1667 25.5,51.5C 23.8333,51.5 22.1667,51.5 20.5,51.5C 20.5,50.1667 20.5,48.8333 20.5,47.5 Z"/></g>
</svg>
