<?xml version="1.0" standalone="no"?>
<!DOCTYPE svg PUBLIC "-//W3C//DTD SVG 20010904//EN"
 "http://www.w3.org/TR/2001/REC-SVG-20010904/DTD/svg10.dtd">
<svg version="1.0" xmlns="http://www.w3.org/2000/svg"
 width="50.000000pt" height="50.000000pt" viewBox="0 0 50.000000 50.000000"
 preserveAspectRatio="xMidYMid meet">

<g transform="translate(0.000000,50.000000) scale(0.100000,-0.100000)"
fill="#000000" stroke="none">
<path d="M169 476 c-170 -60 -212 -283 -76 -403 48 -42 96 -56 177 -51 124 7
201 85 208 210 5 90 -15 145 -73 196 -68 59 -155 77 -236 48z m152 -11 c90
-32 149 -117 149 -212 -1 -133 -91 -223 -225 -223 -68 0 -118 23 -168 79 -151
168 29 431 244 356z"/>
<path d="M246 364 c-8 -42 -29 -52 -65 -31 -32 19 -77 12 -96 -16 -19 -27 -21
-167 -3 -185 21 -21 48 -13 66 18 11 20 23 29 34 26 9 -2 27 3 39 12 17 12 26
13 40 4 10 -7 30 -12 44 -12 17 0 29 -8 37 -25 20 -45 73 -43 84 2 7 26 -1
128 -11 156 -11 27 -64 40 -91 22 -26 -17 -74 -20 -74 -6 0 5 4 21 10 35 5 14
5 28 1 31 -5 2 -12 -11 -15 -31z m89 -94 c-5 -8 -11 -8 -17 -2 -6 6 -7 16 -3
22 5 8 11 8 17 2 6 -6 7 -16 3 -22z m50 19 c10 -15 -1 -23 -20 -15 -9 3 -13
10 -10 16 8 13 22 13 30 -1z m-245 -14 c0 -8 5 -15 11 -15 6 0 3 -7 -5 -16
-15 -14 -17 -14 -32 0 -8 9 -11 16 -5 16 6 0 11 7 11 15 0 8 5 15 10 15 6 0
10 -7 10 -15z m97 -21 c-3 -3 -12 -4 -19 -1 -8 3 -5 6 6 6 11 1 17 -2 13 -5z
m50 0 c-3 -3 -12 -4 -19 -1 -8 3 -5 6 6 6 11 1 17 -2 13 -5z m53 -19 c0 -8 -7
-15 -15 -15 -8 0 -15 7 -15 15 0 8 7 15 15 15 8 0 15 -7 15 -15z m45 6 c7 -12
-12 -24 -25 -16 -11 7 -4 25 10 25 5 0 11 -4 15 -9z"/>
</g>
</svg>
