<?xml version="1.0" standalone="no"?>
<!DOCTYPE svg PUBLIC "-//W3C//DTD SVG 20010904//EN"
 "http://www.w3.org/TR/2001/REC-SVG-20010904/DTD/svg10.dtd">
<svg version="1.0" xmlns="http://www.w3.org/2000/svg"
 width="50.000000pt" height="50.000000pt" viewBox="0 0 50.000000 50.000000"
 preserveAspectRatio="xMidYMid meet">

<g transform="translate(0.000000,50.000000) scale(0.100000,-0.100000)"
fill="#000000" stroke="none">
<path d="M257 423 c-2 -5 -9 -27 -17 -50 -11 -37 -17 -43 -40 -43 -15 0 -33 7
-40 15 -22 26 -87 19 -119 -13 -26 -25 -29 -37 -35 -124 -8 -104 0 -134 41
-144 36 -9 64 6 79 42 12 30 18 33 40 28 18 -5 34 0 55 15 l29 22 29 -22 c21
-15 37 -20 56 -15 22 6 27 3 36 -24 19 -52 73 -66 110 -29 20 20 21 28 14 118
-7 98 -16 126 -44 148 -23 18 -96 16 -111 -2 -11 -13 -90 -23 -90 -11 0 2 7
20 15 39 8 20 15 41 15 47 0 12 -17 14 -23 3z m113 -149 c0 -14 -21 -19 -33
-7 -9 9 13 34 24 27 5 -3 9 -12 9 -20z m64 -5 c-8 -14 -34 -11 -34 4 0 8 3 17
7 20 9 9 34 -13 27 -24z m-334 -4 c0 -8 7 -15 15 -15 8 0 15 -4 15 -10 0 -5
-6 -10 -14 -10 -8 0 -16 -7 -18 -15 -2 -11 -9 -8 -27 10 -18 20 -20 25 -7 25
9 0 16 7 16 15 0 8 5 15 10 15 6 0 10 -7 10 -15z m135 -25 c-3 -5 -13 -10 -21
-10 -8 0 -14 5 -14 10 0 6 9 10 21 10 11 0 17 -4 14 -10z m65 0 c0 -5 -6 -10
-14 -10 -8 0 -18 5 -21 10 -3 6 3 10 14 10 12 0 21 -4 21 -10z m70 -24 c0 -21
-21 -31 -30 -15 -5 7 -6 17 -4 21 9 14 34 9 34 -6z m65 -6 c0 -22 -29 -18 -33
3 -3 14 1 18 15 15 10 -2 18 -10 18 -18z"/>
</g>
</svg>
