<?xml version="1.0" encoding="UTF-8"?>
<!DOCTYPE svg PUBLIC "-//W3C//DTD SVG 1.1//EN" "http://www.w3.org/Graphics/SVG/1.1/DTD/svg11.dtd">
<svg xmlns="http://www.w3.org/2000/svg" version="1.1" width="64px" height="64px" style="shape-rendering:geometricPrecision; text-rendering:geometricPrecision; image-rendering:optimizeQuality; fill-rule:evenodd; clip-rule:evenodd" xmlns:xlink="http://www.w3.org/1999/xlink">
<g><path style="opacity:0.936" fill="#206aff" d="M 49.5,8.5 C 48.5,8.5 47.5,8.5 46.5,8.5C 36.5,7.16667 26.5,7.16667 16.5,8.5C 15.5,8.5 14.5,8.5 13.5,8.5C 13.5,7.5 13.5,6.5 13.5,5.5C 25.5,5.5 37.5,5.5 49.5,5.5C 49.5,6.5 49.5,7.5 49.5,8.5 Z"/></g>
<g><path style="opacity:0.967" fill="#2c65ff" d="M 13.5,8.5 C 14.5,8.5 15.5,8.5 16.5,8.5C 26.5,8.5 36.5,8.5 46.5,8.5C 47.5,8.5 48.5,8.5 49.5,8.5C 51.3435,10.2789 52.0102,12.6122 51.5,15.5C 50.8333,15.5 50.1667,15.5 49.5,15.5C 49.938,11.0917 47.938,9.42508 43.5,10.5C 43.5,12.1667 43.5,13.8333 43.5,15.5C 42.8333,15.5 42.1667,15.5 41.5,15.5C 41.5,13.8333 41.5,12.1667 41.5,10.5C 32.4938,10.3336 23.4938,10.5002 14.5,11C 13.6634,12.0113 13.33,13.1779 13.5,14.5C 12.8333,14.5 12.1667,14.5 11.5,14.5C 11.0254,11.9179 11.6921,9.91791 13.5,8.5 Z"/></g>
<g><path style="opacity:1" fill="#3a5fff" d="M 17.5,13.5 C 24.1998,13.17 30.8665,13.5033 37.5,14.5C 34.1667,14.8333 30.8333,15.1667 27.5,15.5C 23.7614,15.4864 20.428,14.8197 17.5,13.5 Z"/></g>
<g><path style="opacity:1" fill="#4759fe" d="M 17.5,17.5 C 24.1998,17.17 30.8665,17.5033 37.5,18.5C 34.1667,18.8333 30.8333,19.1667 27.5,19.5C 23.7614,19.4864 20.428,18.8197 17.5,17.5 Z"/></g>
<g><path style="opacity:0.945" fill="#465aff" d="M 41.5,15.5 C 42.1667,15.5 42.8333,15.5 43.5,15.5C 44.1342,16.9468 45.3009,17.6134 47,17.5C 48.3756,17.3158 49.2089,16.6491 49.5,15.5C 50.1667,15.5 50.8333,15.5 51.5,15.5C 51.5,17.1667 51.5,18.8333 51.5,20.5C 50.8333,20.5 50.1667,20.5 49.5,20.5C 47.0521,19.5269 44.3854,19.1936 41.5,19.5C 41.5,18.1667 41.5,16.8333 41.5,15.5 Z"/></g>
<g><path style="opacity:1" fill="#5454ff" d="M 25.5,21.5 C 29.5546,21.1758 33.5546,21.5091 37.5,22.5C 35.5,22.8333 33.5,23.1667 31.5,23.5C 29.0478,23.4609 27.0478,22.7943 25.5,21.5 Z"/></g>
<g><path style="opacity:0.884" fill="#5c50ff" d="M 10.5,23.5 C 13.5,24.8333 16.5,24.8333 19.5,23.5C 21.9806,23.774 23.6473,25.1073 24.5,27.5C 23.1667,27.5 21.8333,27.5 20.5,27.5C 20.3893,26.8826 20.056,26.3826 19.5,26C 16.8333,25.3333 14.1667,25.3333 11.5,26C 10.944,26.3826 10.6107,26.8826 10.5,27.5C 9.83333,27.5 9.16667,27.5 8.5,27.5C 8.15684,25.5168 8.82351,24.1834 10.5,23.5 Z"/></g>
<g><path style="opacity:0.989" fill="#5255ff" d="M 11.5,14.5 C 12.1667,14.5 12.8333,14.5 13.5,14.5C 13.5,17.5 13.5,20.5 13.5,23.5C 15.5,23.5 17.5,23.5 19.5,23.5C 16.5,24.8333 13.5,24.8333 10.5,23.5C 11.4767,20.7131 11.81,17.7131 11.5,14.5 Z"/></g>
<g><path style="opacity:1" fill="#614efe" d="M 25.5,25.5 C 29.5546,25.1758 33.5546,25.5091 37.5,26.5C 35.5,26.8333 33.5,27.1667 31.5,27.5C 29.0478,27.4609 27.0478,26.7943 25.5,25.5 Z"/></g>
<g><path style="opacity:1" fill="#604efe" d="M 49.5,20.5 C 50.1667,20.5 50.8333,20.5 51.5,20.5C 51.5,23.5 51.5,26.5 51.5,29.5C 50.8333,29.5 50.1667,29.5 49.5,29.5C 49.5,26.5 49.5,23.5 49.5,20.5 Z"/></g>
<g><path style="opacity:0.958" fill="#6e48ff" d="M 20.5,27.5 C 21.8333,27.5 23.1667,27.5 24.5,27.5C 24.6107,28.1174 24.944,28.6174 25.5,29C 33.1594,29.4997 40.8261,29.6664 48.5,29.5C 48.5,30.8333 48.5,32.1667 48.5,33.5C 47.8333,33.5 47.1667,33.5 46.5,33.5C 46.3893,32.8826 46.056,32.3826 45.5,32C 37.8117,31.8315 30.1451,31.3315 22.5,30.5C 21.8075,29.4822 21.1408,28.4822 20.5,27.5 Z"/></g>
<g><path style="opacity:1" fill="#7645fe" d="M 8.5,27.5 C 9.16667,27.5 9.83333,27.5 10.5,27.5C 10.5,30.5 10.5,33.5 10.5,36.5C 9.83333,36.5 9.16667,36.5 8.5,36.5C 8.5,33.5 8.5,30.5 8.5,27.5 Z"/></g>
<g><path style="opacity:0.794" fill="#843eff" d="M 49.5,29.5 C 50.1667,29.5 50.8333,29.5 51.5,29.5C 51.5,31.8333 51.5,34.1667 51.5,36.5C 52.5,36.5 53.5,36.5 54.5,36.5C 54.5,37.8333 54.5,39.1667 54.5,40.5C 53.8333,40.5 53.1667,40.5 52.5,40.5C 52.1667,39.1667 51.8333,39.1667 51.5,40.5C 50.8333,40.5 50.1667,40.5 49.5,40.5C 49.5,36.8333 49.5,33.1667 49.5,29.5 Z"/></g>
<g><path style="opacity:1" fill="#8b3cfe" d="M 46.5,33.5 C 47.1667,33.5 47.8333,33.5 48.5,33.5C 48.5,36.5 48.5,39.5 48.5,42.5C 47.8333,42.5 47.1667,42.5 46.5,42.5C 46.5,39.5 46.5,36.5 46.5,33.5 Z"/></g>
<g><path style="opacity:1" fill="#9239fe" d="M 8.5,36.5 C 9.16667,36.5 9.83333,36.5 10.5,36.5C 10.5,39.1667 10.5,41.8333 10.5,44.5C 9.83333,44.5 9.16667,44.5 8.5,44.5C 8.5,41.8333 8.5,39.1667 8.5,36.5 Z"/></g>
<g><path style="opacity:1" fill="#9f33fe" d="M 49.5,40.5 C 50.1667,40.5 50.8333,40.5 51.5,40.5C 51.5,43.1667 51.5,45.8333 51.5,48.5C 50.8333,48.5 50.1667,48.5 49.5,48.5C 49.5,45.8333 49.5,43.1667 49.5,40.5 Z"/></g>
<g><path style="opacity:1" fill="#a431ff" d="M 52.5,40.5 C 53.1667,40.5 53.8333,40.5 54.5,40.5C 54.5,44.5 54.5,48.5 54.5,52.5C 53.8333,52.5 53.1667,52.5 52.5,52.5C 52.5,48.5 52.5,44.5 52.5,40.5 Z"/></g>
<g><path style="opacity:0.883" fill="#92befe" d="M 16.5,49.5 C 15.1667,49.5 13.8333,49.5 12.5,49.5C 12.6415,44.8046 13.9749,44.8046 16.5,49.5 Z"/></g>
<g><path style="opacity:1" fill="#ad2dff" d="M 8.5,44.5 C 9.16667,44.5 9.83333,44.5 10.5,44.5C 10.5,47.1667 10.5,49.8333 10.5,52.5C 9.83333,52.5 9.16667,52.5 8.5,52.5C 8.5,49.8333 8.5,47.1667 8.5,44.5 Z"/></g>
<g><path style="opacity:0.913" fill="#c1b3fe" d="M 12.5,49.5 C 13.8333,49.5 15.1667,49.5 16.5,49.5C 17.9616,50.4577 19.2949,51.6244 20.5,53C 17.854,53.4974 15.1873,53.6641 12.5,53.5C 12.5,52.1667 12.5,50.8333 12.5,49.5 Z"/></g>
<g><path style="opacity:0.982" fill="#b22bff" d="M 46.5,42.5 C 47.1667,42.5 47.8333,42.5 48.5,42.5C 48.3347,46.1817 48.5014,49.8484 49,53.5C 49.4935,51.8659 49.6602,50.1992 49.5,48.5C 50.1667,48.5 50.8333,48.5 51.5,48.5C 51.5,49.8333 51.5,51.1667 51.5,52.5C 50.7002,54.7409 49.0336,55.7409 46.5,55.5C 46.5,51.1667 46.5,46.8333 46.5,42.5 Z"/></g>
<g><path style="opacity:0.982" fill="#c224ff" d="M 8.5,52.5 C 9.16667,52.5 9.83333,52.5 10.5,52.5C 11.3094,53.4687 12.3094,54.3021 13.5,55C 24.495,55.4998 35.495,55.6665 46.5,55.5C 49.0336,55.7409 50.7002,54.7409 51.5,52.5C 51.8333,52.5 52.1667,52.5 52.5,52.5C 53.1667,52.5 53.8333,52.5 54.5,52.5C 54.7135,54.1439 54.3802,55.6439 53.5,57C 39.1667,57.6667 24.8333,57.6667 10.5,57C 8.96317,55.8904 8.2965,54.3904 8.5,52.5 Z"/></g>
</svg>
