<?xml version="1.0" standalone="no"?>
<!DOCTYPE svg PUBLIC "-//W3C//DTD SVG 20010904//EN"
 "http://www.w3.org/TR/2001/REC-SVG-20010904/DTD/svg10.dtd">
<svg version="1.0" xmlns="http://www.w3.org/2000/svg"
 width="50.000000pt" height="50.000000pt" viewBox="0 0 50.000000 50.000000"
 preserveAspectRatio="xMidYMid meet">

<g transform="translate(0.000000,50.000000) scale(0.100000,-0.100000)"
fill="#000000" stroke="none">
<path d="M7 414 c-13 -13 -8 -349 5 -362 19 -19 461 -17 477 2 8 9 11 68 9
187 l-3 174 -241 3 c-132 1 -243 -1 -247 -4z m403 -37 c-39 -35 -151 -117
-160 -117 -9 0 -121 82 -160 117 -12 11 15 13 160 13 145 0 172 -2 160 -13z
m-275 -77 c53 -41 101 -70 115 -70 14 0 62 29 115 70 50 39 95 70 99 70 3 0 5
-66 4 -147 l-3 -148 -215 0 -215 0 -3 148 c-1 81 1 147 4 147 4 0 49 -31 99
-70z"/>
</g>
</svg>
