<?xml version="1.0" encoding="UTF-8"?>
<!DOCTYPE svg PUBLIC "-//W3C//DTD SVG 1.1//EN" "http://www.w3.org/Graphics/SVG/1.1/DTD/svg11.dtd">
<svg xmlns="http://www.w3.org/2000/svg" version="1.1" width="64px" height="64px" style="shape-rendering:geometricPrecision; text-rendering:geometricPrecision; image-rendering:optimizeQuality; fill-rule:evenodd; clip-rule:evenodd" xmlns:xlink="http://www.w3.org/1999/xlink">
<g><path style="opacity:0.816" fill="#2667ff" d="M 26.5,11.5 C 23.6146,11.1936 20.9479,11.5269 18.5,12.5C 15.7939,12.6878 13.4605,13.6878 11.5,15.5C 10.791,14.596 9.79105,14.2627 8.5,14.5C 12.7813,9.81588 18.1146,8.31588 24.5,10C 25.4158,10.2784 26.0825,10.7784 26.5,11.5 Z"/></g>
<g><path style="opacity:0.791" fill="#2568ff" d="M 52.5,12.5 C 51.391,12.5569 50.391,12.8902 49.5,13.5C 48.8333,13.5 48.1667,13.5 47.5,13.5C 46.791,12.596 45.791,12.2627 44.5,12.5C 42.0521,11.5269 39.3854,11.1936 36.5,11.5C 38.4621,9.98274 40.7954,9.31608 43.5,9.5C 47.0523,9.13644 50.0523,10.1364 52.5,12.5 Z"/></g>
<g><path style="opacity:0.695" fill="#2b65ff" d="M 36.5,11.5 C 39.3854,11.1936 42.0521,11.5269 44.5,12.5C 40.9966,12.1289 37.9966,13.1289 35.5,15.5C 34.791,14.596 33.791,14.2627 32.5,14.5C 33.2623,12.7376 34.5956,11.7376 36.5,11.5 Z"/></g>
<g><path style="opacity:0.923" fill="#2c63ff" d="M 18.5,12.5 C 20.9479,11.5269 23.6146,11.1936 26.5,11.5C 28.0269,11.427 29.0269,12.0937 29.5,13.5C 28.8333,14.1667 28.1667,14.8333 27.5,15.5C 25.0034,13.1289 22.0034,12.1289 18.5,12.5 Z"/></g>
<g><path style="opacity:0.696" fill="#3760ff" d="M 29.5,13.5 C 30.1515,14.0906 30.8182,14.7573 31.5,15.5C 32.1067,15.3764 32.44,15.0431 32.5,14.5C 33.791,14.2627 34.791,14.596 35.5,15.5C 35.1667,16.1667 34.8333,16.8333 34.5,17.5C 32.5853,17.2155 30.9187,17.5489 29.5,18.5C 28.5987,17.7095 27.9321,16.7095 27.5,15.5C 28.1667,14.8333 28.8333,14.1667 29.5,13.5 Z"/></g>
<g><path style="opacity:0.913" fill="#83c3ff" d="M 47.5,13.5 C 47.8417,14.3382 48.5084,14.6716 49.5,14.5C 49.5,14.8333 49.5,15.1667 49.5,15.5C 47.5,15.5 45.5,15.5 43.5,15.5C 44.1834,13.8235 45.5168,13.1568 47.5,13.5 Z"/></g>
<g><path style="opacity:0.69" fill="#3362ff" d="M 52.5,12.5 C 53.9744,13.4363 54.9744,14.7697 55.5,16.5C 54.5,16.5 53.5,16.5 52.5,16.5C 51.8333,16.1667 51.1667,15.8333 50.5,15.5C 50.5,14.8333 50.1667,14.5 49.5,14.5C 49.5,14.1667 49.5,13.8333 49.5,13.5C 50.391,12.8902 51.391,12.5569 52.5,12.5 Z"/></g>
<g><path style="opacity:0.664" fill="#a5b8ff" d="M 43.5,15.5 C 45.5,15.5 47.5,15.5 49.5,15.5C 49.8333,15.5 50.1667,15.5 50.5,15.5C 50.5569,16.609 50.8902,17.609 51.5,18.5C 50.5,18.5 49.5,18.5 48.5,18.5C 46.8869,17.3077 45.2202,16.3077 43.5,15.5 Z"/></g>
<g><path style="opacity:0.694" fill="#3f5cff" d="M 8.5,14.5 C 9.79105,14.2627 10.791,14.596 11.5,15.5C 10.5592,17.0495 9.89254,18.7162 9.5,20.5C 8.5,21.8333 7.5,21.8333 6.5,20.5C 6.60357,18.2972 7.27024,16.2972 8.5,14.5 Z"/></g>
<g><path style="opacity:0.887" fill="#4559ff" d="M 34.5,17.5 C 33.6993,19.0418 33.366,20.7085 33.5,22.5C 32.1667,22.5 30.8333,22.5 29.5,22.5C 29.5,21.1667 29.5,19.8333 29.5,18.5C 30.9187,17.5489 32.5853,17.2155 34.5,17.5 Z"/></g>
<g><path style="opacity:0.803" fill="#415bff" d="M 52.5,16.5 C 53.5,16.5 54.5,16.5 55.5,16.5C 56.3007,18.0418 56.634,19.7085 56.5,21.5C 55.391,21.4431 54.391,21.1098 53.5,20.5C 53.1667,19.1667 52.8333,17.8333 52.5,16.5 Z"/></g>
<g><path style="opacity:0.682" fill="#cfaffe" d="M 48.5,18.5 C 49.5,18.5 50.5,18.5 51.5,18.5C 51.5,19.5 51.5,20.5 51.5,21.5C 50.5,21.5 49.5,21.5 48.5,21.5C 48.5,20.5 48.5,19.5 48.5,18.5 Z"/></g>
<g><path style="opacity:0.161" fill="#5552ff" d="M 6.5,20.5 C 7.5,21.8333 8.5,21.8333 9.5,20.5C 9.5,22.5 9.5,24.5 9.5,26.5C 8.5,26.5 7.5,26.5 6.5,26.5C 6.5,24.5 6.5,22.5 6.5,20.5 Z"/></g>
<g><path style="opacity:0.715" fill="#5a50ff" d="M 53.5,20.5 C 54.391,21.1098 55.391,21.4431 56.5,21.5C 56.8064,24.3854 56.4731,27.0521 55.5,29.5C 54.5084,29.6716 53.8417,29.3382 53.5,28.5C 53.5,25.8333 53.5,23.1667 53.5,20.5 Z"/></g>
<g><path style="opacity:0.791" fill="#6c46ff" d="M 6.5,26.5 C 7.5,26.5 8.5,26.5 9.5,26.5C 10.3705,29.1123 11.0372,31.779 11.5,34.5C 10.5084,34.3284 9.84171,34.6618 9.5,35.5C 7.92809,32.7846 6.92809,29.7846 6.5,26.5 Z"/></g>
<g><path style="opacity:0.724" fill="#7143ff" d="M 53.5,28.5 C 53.8417,29.3382 54.5084,29.6716 55.5,29.5C 55.405,31.7857 54.7384,33.7857 53.5,35.5C 53.1583,34.6618 52.4916,34.3284 51.5,34.5C 51.595,32.2143 52.2616,30.2143 53.5,28.5 Z"/></g>
<g><path style="opacity:0.643" fill="#873eff" d="M 11.5,34.5 C 13.0627,35.9448 14.396,37.6115 15.5,39.5C 14.8333,40.1667 14.1667,40.8333 13.5,41.5C 11.6736,39.8525 10.3403,37.8525 9.5,35.5C 9.84171,34.6618 10.5084,34.3284 11.5,34.5 Z"/></g>
<g><path style="opacity:0.725" fill="#873dff" d="M 51.5,34.5 C 52.4916,34.3284 53.1583,34.6618 53.5,35.5C 52.8897,37.4341 51.8897,39.1007 50.5,40.5C 49.209,40.7373 48.209,40.404 47.5,39.5C 48.604,37.6115 49.9373,35.9448 51.5,34.5 Z"/></g>
<g><path style="opacity:0.681" fill="#a034ff" d="M 15.5,39.5 C 17.5,42.1667 19.8333,44.5 22.5,46.5C 21.1667,46.5 19.8333,46.5 18.5,46.5C 16.5,45.1667 14.8333,43.5 13.5,41.5C 14.1667,40.8333 14.8333,40.1667 15.5,39.5 Z"/></g>
<g><path style="opacity:0.676" fill="#9f33ff" d="M 47.5,39.5 C 48.209,40.404 49.209,40.7373 50.5,40.5C 48.8333,42.8333 46.8333,44.8333 44.5,46.5C 43.209,46.7373 42.209,46.404 41.5,45.5C 43.8606,43.8061 45.8606,41.8061 47.5,39.5 Z"/></g>
<g><path style="opacity:0.81" fill="#ab2bff" d="M 18.5,46.5 C 19.8333,46.5 21.1667,46.5 22.5,46.5C 24.2303,47.0256 25.5637,48.0256 26.5,49.5C 24.8333,49.5 23.1667,49.5 21.5,49.5C 20.1667,48.8333 19.1667,47.8333 18.5,46.5 Z"/></g>
<g><path style="opacity:0.637" fill="#ab2bff" d="M 41.5,45.5 C 42.209,46.404 43.209,46.7373 44.5,46.5C 43.8333,47.8333 42.8333,48.8333 41.5,49.5C 40.4324,48.5655 39.099,48.2322 37.5,48.5C 38.795,47.5116 40.1283,46.5116 41.5,45.5 Z"/></g>
<g><path style="opacity:0.736" fill="#bc27ff" d="M 21.5,49.5 C 23.1667,49.5 24.8333,49.5 26.5,49.5C 27.8333,49.8333 29.1667,50.1667 30.5,50.5C 30.5,50.8333 30.5,51.1667 30.5,51.5C 28.8333,51.5 27.1667,51.5 25.5,51.5C 23.847,51.3404 22.5137,50.6737 21.5,49.5 Z"/></g>
<g><path style="opacity:0.699" fill="#b828ff" d="M 37.5,48.5 C 39.099,48.2322 40.4324,48.5655 41.5,49.5C 40.4863,50.6737 39.153,51.3404 37.5,51.5C 35.1667,51.5 32.8333,51.5 30.5,51.5C 30.5,51.1667 30.5,50.8333 30.5,50.5C 33.0786,50.6061 35.412,49.9395 37.5,48.5 Z"/></g>
<g><path style="opacity:0.82" fill="#be25ff" d="M 25.5,51.5 C 27.1667,51.5 28.8333,51.5 30.5,51.5C 32.8333,51.5 35.1667,51.5 37.5,51.5C 35.8825,52.9723 33.8825,53.639 31.5,53.5C 29.1175,53.639 27.1175,52.9723 25.5,51.5 Z"/></g>
</svg>
