<?xml version="1.0" encoding="UTF-8"?>
<!DOCTYPE svg PUBLIC "-//W3C//DTD SVG 1.1//EN" "http://www.w3.org/Graphics/SVG/1.1/DTD/svg11.dtd">
<svg xmlns="http://www.w3.org/2000/svg" version="1.1" width="64px" height="64px" style="shape-rendering:geometricPrecision; text-rendering:geometricPrecision; image-rendering:optimizeQuality; fill-rule:evenodd; clip-rule:evenodd" xmlns:xlink="http://www.w3.org/1999/xlink">
<g><path style="opacity:0.984" fill="#2c65ff" d="M 6.5,5.5 C 6.5,6.83333 7.16667,7.5 8.5,7.5C 8.38929,8.11742 8.05596,8.61742 7.5,9C 19.5,9.66667 31.5,9.66667 43.5,9C 42.944,8.61742 42.6107,8.11742 42.5,7.5C 43.8333,7.5 44.5,6.83333 44.5,5.5C 45.4682,7.60737 45.8016,9.9407 45.5,12.5C 44.8333,12.5 44.1667,12.5 43.5,12.5C 31.9139,11.522 20.2473,11.1887 8.5,11.5C 8.5,13.1667 8.5,14.8333 8.5,16.5C 7.5,16.5 6.5,16.5 5.5,16.5C 5.18503,12.6286 5.51836,8.96192 6.5,5.5 Z M 8.5,7.5 C 19.8333,7.5 31.1667,7.5 42.5,7.5C 42.6107,8.11742 42.944,8.61742 43.5,9C 31.5,9.66667 19.5,9.66667 7.5,9C 8.05596,8.61742 8.38929,8.11742 8.5,7.5 Z"/></g>
<g><path style="opacity:0.986" fill="#1d6bff" d="M 6.5,5.5 C 19.1667,5.5 31.8333,5.5 44.5,5.5C 44.5,6.83333 43.8333,7.5 42.5,7.5C 31.1667,7.5 19.8333,7.5 8.5,7.5C 7.16667,7.5 6.5,6.83333 6.5,5.5 Z"/></g>
<g><path style="opacity:0.746" fill="#4d56ff" d="M 10.5,17.5 C 12.5,17.5 14.5,17.5 16.5,17.5C 16.5,19.5 16.5,21.5 16.5,23.5C 14.5,23.5 12.5,23.5 10.5,23.5C 10.5,21.5 10.5,19.5 10.5,17.5 Z"/></g>
<g><path style="opacity:1" fill="#4d57fe" d="M 18.5,19.5 C 22.226,19.1774 25.8927,19.5108 29.5,20.5C 27.6667,20.8333 25.8333,21.1667 24,21.5C 21.7047,21.4535 19.8714,20.7868 18.5,19.5 Z"/></g>
<g><path style="opacity:0.779" fill="#5553ff" d="M 43.5,12.5 C 44.1667,12.5 44.8333,12.5 45.5,12.5C 45.335,15.8499 45.5017,19.1832 46,22.5C 49.3657,21.0048 52.5323,21.3382 55.5,23.5C 56.2458,24.7362 56.5792,26.0695 56.5,27.5C 55.5,27.5 54.5,27.5 53.5,27.5C 53.6716,26.5084 53.3382,25.8417 52.5,25.5C 50.8333,24.1667 49.1667,24.1667 47.5,25.5C 46.6255,27.69 44.9589,28.69 42.5,28.5C 42.7373,27.209 42.404,26.209 41.5,25.5C 39.8333,24.1667 38.1667,24.1667 36.5,25.5C 35.6618,25.8417 35.3284,26.5084 35.5,27.5C 34.5,27.5 33.5,27.5 32.5,27.5C 32.3832,25.5165 33.0499,23.8498 34.5,22.5C 37.4212,21.5934 40.4212,21.2601 43.5,21.5C 43.5,18.5 43.5,15.5 43.5,12.5 Z"/></g>
<g><path style="opacity:0.615" fill="#5a51fe" d="M 5.5,16.5 C 6.5,16.5 7.5,16.5 8.5,16.5C 8.5,20.8333 8.5,25.1667 8.5,29.5C 7.5,29.5 6.5,29.5 5.5,29.5C 5.5,25.1667 5.5,20.8333 5.5,16.5 Z"/></g>
<g><path style="opacity:0.893" fill="#b1b6fe" d="M 36.5,25.5 C 38.1667,25.5 39.8333,25.5 41.5,25.5C 41.2089,26.6491 40.3756,27.3158 39,27.5C 37.6244,27.3158 36.7911,26.6491 36.5,25.5 Z"/></g>
<g><path style="opacity:0.926" fill="#b1b6fe" d="M 47.5,25.5 C 49.1667,25.5 50.8333,25.5 52.5,25.5C 52.2089,26.6491 51.3756,27.3158 50,27.5C 48.6244,27.3158 47.7911,26.6491 47.5,25.5 Z"/></g>
<g><path style="opacity:0.72" fill="#6c48ff" d="M 10.5,26.5 C 12.5,26.5 14.5,26.5 16.5,26.5C 16.5,28.5 16.5,30.5 16.5,32.5C 14.5,32.5 12.5,32.5 10.5,32.5C 10.5,30.5 10.5,28.5 10.5,26.5 Z"/></g>
<g><path style="opacity:1" fill="#6b49fe" d="M 18.5,28.5 C 22.226,28.1774 25.8927,28.5108 29.5,29.5C 27.6667,29.8333 25.8333,30.1667 24,30.5C 21.7047,30.4535 19.8714,29.7868 18.5,28.5 Z"/></g>
<g><path style="opacity:0.955" fill="#7349ff" d="M 32.5,27.5 C 33.5,27.5 34.5,27.5 35.5,27.5C 35.1496,30.4534 36.1496,32.7867 38.5,34.5C 37.1667,34.5 35.8333,34.5 34.5,34.5C 32.8372,32.5615 32.1706,30.2282 32.5,27.5 Z"/></g>
<g><path style="opacity:0.659" fill="#7847ff" d="M 53.5,27.5 C 54.5,27.5 55.5,27.5 56.5,27.5C 57.0391,31.4157 55.7058,34.4157 52.5,36.5C 50.8612,36.9258 49.5279,36.9258 48.5,36.5C 49.7927,34.7041 51.2927,33.0375 53,31.5C 53.49,30.2068 53.6567,28.8734 53.5,27.5 Z"/></g>
<g><path style="opacity:0.461" fill="#813ffe" d="M 5.5,29.5 C 6.5,29.5 7.5,29.5 8.5,29.5C 8.5,33.1667 8.5,36.8333 8.5,40.5C 7.5,40.5 6.5,40.5 5.5,40.5C 5.5,36.8333 5.5,33.1667 5.5,29.5 Z"/></g>
<g><path style="opacity:0.829" fill="#8a3cff" d="M 10.5,35.5 C 12.5,35.5 14.5,35.5 16.5,35.5C 16.5,37.5 16.5,39.5 16.5,41.5C 14.5,41.5 12.5,41.5 10.5,41.5C 10.5,39.5 10.5,37.5 10.5,35.5 Z"/></g>
<g><path style="opacity:1" fill="#8a3cfe" d="M 18.5,37.5 C 22.226,37.1774 25.8927,37.5108 29.5,38.5C 27.6667,38.8333 25.8333,39.1667 24,39.5C 21.7047,39.4535 19.8714,38.7868 18.5,37.5 Z"/></g>
<g><path style="opacity:0.804" fill="#873cff" d="M 34.5,34.5 C 35.8333,34.5 37.1667,34.5 38.5,34.5C 41.3701,38.3023 44.7034,38.9689 48.5,36.5C 49.5279,36.9258 50.8612,36.9258 52.5,36.5C 51.4206,38.543 49.754,39.8763 47.5,40.5C 45.8333,40.5 44.1667,40.5 42.5,40.5C 38.9796,39.6472 36.3129,37.6472 34.5,34.5 Z"/></g>
<g><path style="opacity:1" fill="#aa2fff" d="M 42.5,40.5 C 44.1667,40.5 45.8333,40.5 47.5,40.5C 45.9254,42.1137 45.2587,44.1137 45.5,46.5C 49.5,46.5 53.5,46.5 57.5,46.5C 57.8064,49.3854 57.4731,52.0521 56.5,54.5C 56.1583,53.6618 55.4916,53.3284 54.5,53.5C 54.4208,52.0695 54.7542,50.7362 55.5,49.5C 43.5185,48.501 31.5185,48.1677 19.5,48.5C 19.5,49.5 19.5,50.5 19.5,51.5C 18.1667,51.5 17.5,50.8333 17.5,49.5C 17.5,48.5 17.5,47.5 17.5,46.5C 26.1667,46.5 34.8333,46.5 43.5,46.5C 43.6747,44.3792 43.3414,42.3792 42.5,40.5 Z"/></g>
<g><path style="opacity:0.508" fill="#ac2dff" d="M 5.5,40.5 C 6.5,40.5 7.5,40.5 8.5,40.5C 8.23071,44.9315 8.56404,49.2648 9.5,53.5C 8.79105,54.404 7.79105,54.7373 6.5,54.5C 5.51388,50.03 5.18054,45.3633 5.5,40.5 Z"/></g>
<g><path style="opacity:0.925" fill="#c423ff" d="M 17.5,49.5 C 17.5,50.8333 18.1667,51.5 19.5,51.5C 19.67,52.8221 19.3366,53.9887 18.5,55C 29.1667,55.6667 39.8333,55.6667 50.5,55C 51.9007,54.5899 53.234,54.0899 54.5,53.5C 55.4916,53.3284 56.1583,53.6618 56.5,54.5C 56.0472,55.4584 55.3805,56.2917 54.5,57C 39.1667,57.6667 23.8333,57.6667 8.5,57C 7.61947,56.2917 6.9528,55.4584 6.5,54.5C 7.79105,54.7373 8.79105,54.404 9.5,53.5C 13.7175,55.2844 16.3842,53.951 17.5,49.5 Z"/></g>
</svg>
