<?xml version="1.0" encoding="UTF-8"?>
<!DOCTYPE svg PUBLIC "-//W3C//DTD SVG 1.1//EN" "http://www.w3.org/Graphics/SVG/1.1/DTD/svg11.dtd">
<svg xmlns="http://www.w3.org/2000/svg" version="1.1" width="64px" height="64px" style="shape-rendering:geometricPrecision; text-rendering:geometricPrecision; image-rendering:optimizeQuality; fill-rule:evenodd; clip-rule:evenodd" xmlns:xlink="http://www.w3.org/1999/xlink">
<g><path style="opacity:0.906" fill="#216aff" d="M 52.5,9.5 C 50.901,9.23219 49.5676,9.56552 48.5,10.5C 37.1667,7.83333 25.8333,7.83333 14.5,10.5C 13.5,9.83333 12.5,9.16667 11.5,8.5C 12.4734,8.01328 13.4734,7.51328 14.5,7C 25.8333,6.33333 37.1667,6.33333 48.5,7C 50.0664,7.6082 51.3998,8.44153 52.5,9.5 Z"/></g>
<g><path style="opacity:0.894" fill="#2f63ff" d="M 11.5,8.5 C 12.5,9.16667 13.5,9.83333 14.5,10.5C 12.4727,11.8606 10.806,13.5273 9.5,15.5C 8.50838,15.6716 7.84171,15.3382 7.5,14.5C 7.8449,11.8021 9.17823,9.80214 11.5,8.5 Z"/></g>
<g><path style="opacity:0.98" fill="#3062ff" d="M 48.5,10.5 C 49.5676,9.56552 50.901,9.23219 52.5,9.5C 54.588,11.3356 55.9213,13.6689 56.5,16.5C 55.391,16.5569 54.391,16.8902 53.5,17.5C 52.9898,14.3257 51.3231,11.9923 48.5,10.5 Z"/></g>
<g><path style="opacity:0.844" fill="#a8a8fe" d="M 48.5,16.5 C 46.5,16.5 44.5,16.5 42.5,16.5C 42.9704,15.3065 43.9704,14.6399 45.5,14.5C 47.0296,14.6399 48.0296,15.3065 48.5,16.5 Z"/></g>
<g><path style="opacity:0.844" fill="#c49fff" d="M 42.5,16.5 C 44.5,16.5 46.5,16.5 48.5,16.5C 48.5,17.8333 48.5,19.1667 48.5,20.5C 46.5,20.5 44.5,20.5 42.5,20.5C 42.5,19.1667 42.5,17.8333 42.5,16.5 Z"/></g>
<g><path style="opacity:1" fill="#4759ff" d="M 7.5,14.5 C 7.84171,15.3382 8.50838,15.6716 9.5,15.5C 9.32588,17.861 8.99255,20.1944 8.5,22.5C 7.83333,22.5 7.16667,22.5 6.5,22.5C 6.1936,19.6146 6.52693,16.9479 7.5,14.5 Z"/></g>
<g><path style="opacity:1" fill="#95afff" d="M 42.5,23.5 C 40.1667,23.5 37.8333,23.5 35.5,23.5C 34.5,23.5 33.5,23.5 32.5,23.5C 29.2033,23.11 26.2033,22.11 23.5,20.5C 27.606,18.5551 31.9393,18.0551 36.5,19C 39.1064,19.7918 41.1064,21.2918 42.5,23.5 Z"/></g>
<g><path style="opacity:1" fill="#4d56ff" d="M 56.5,16.5 C 56.5,19.1667 56.5,21.8333 56.5,24.5C 55.8333,24.5 55.1667,24.5 54.5,24.5C 54.552,22.0971 54.2186,19.7638 53.5,17.5C 54.391,16.8902 55.391,16.5569 56.5,16.5 Z"/></g>
<g><path style="opacity:0.818" fill="#9fa9ff" d="M 23.5,20.5 C 26.2033,22.11 29.2033,23.11 32.5,23.5C 29.2118,23.0156 26.5452,24.0156 24.5,26.5C 22.8333,26.5 21.1667,26.5 19.5,26.5C 19.8449,23.8021 21.1782,21.8021 23.5,20.5 Z"/></g>
<g><path style="opacity:0.798" fill="#a3aaff" d="M 35.5,23.5 C 37.8333,23.5 40.1667,23.5 42.5,23.5C 43.1098,24.391 43.4431,25.391 43.5,26.5C 41.901,26.2322 40.5676,26.5655 39.5,27.5C 37.8333,26.5 36.5,25.1667 35.5,23.5 Z"/></g>
<g><path style="opacity:0.835" fill="#b0a5ff" d="M 19.5,26.5 C 21.1667,26.5 22.8333,26.5 24.5,26.5C 23.6586,28.3792 23.3253,30.3792 23.5,32.5C 21.9582,31.6993 20.2915,31.366 18.5,31.5C 18.2155,29.5853 18.5489,27.9187 19.5,26.5 Z"/></g>
<g><path style="opacity:0.826" fill="#b0a5ff" d="M 43.5,26.5 C 44.4511,27.9187 44.7845,29.5853 44.5,31.5C 42.7085,31.366 41.0418,31.6993 39.5,32.5C 39.5,30.8333 39.5,29.1667 39.5,27.5C 40.5676,26.5655 41.901,26.2322 43.5,26.5 Z"/></g>
<g><path style="opacity:1" fill="#644cfe" d="M 6.5,22.5 C 7.16667,22.5 7.83333,22.5 8.5,22.5C 8.5,25.5 8.5,28.5 8.5,31.5C 7.83333,31.5 7.16667,31.5 6.5,31.5C 6.5,28.5 6.5,25.5 6.5,22.5 Z"/></g>
<g><path style="opacity:1" fill="#6c49fe" d="M 54.5,24.5 C 55.1667,24.5 55.8333,24.5 56.5,24.5C 56.5,27.5 56.5,30.5 56.5,33.5C 55.8333,33.5 55.1667,33.5 54.5,33.5C 54.5,30.5 54.5,27.5 54.5,24.5 Z"/></g>
<g><path style="opacity:0.887" fill="#bca0ff" d="M 18.5,31.5 C 20.2915,31.366 21.9582,31.6993 23.5,32.5C 23.5,33.1667 23.5,33.8333 23.5,34.5C 21.8333,34.5 20.1667,34.5 18.5,34.5C 18.5,33.5 18.5,32.5 18.5,31.5 Z"/></g>
<g><path style="opacity:0.891" fill="#bca0fe" d="M 44.5,31.5 C 44.5,32.5 44.5,33.5 44.5,34.5C 42.8333,34.5 41.1667,34.5 39.5,34.5C 39.5,33.8333 39.5,33.1667 39.5,32.5C 41.0418,31.6993 42.7085,31.366 44.5,31.5 Z"/></g>
<g><path style="opacity:0.868" fill="#c89cfe" d="M 18.5,34.5 C 20.1667,34.5 21.8333,34.5 23.5,34.5C 24.5,35.8333 25.5,37.1667 26.5,38.5C 24.5,38.5 22.5,38.5 20.5,38.5C 19.3263,37.4863 18.6596,36.153 18.5,34.5 Z"/></g>
<g><path style="opacity:0.935" fill="#c89cff" d="M 39.5,34.5 C 41.1667,34.5 42.8333,34.5 44.5,34.5C 44.3404,36.153 43.6737,37.4863 42.5,38.5C 40.5,38.5 38.5,38.5 36.5,38.5C 37.5,37.1667 38.5,35.8333 39.5,34.5 Z"/></g>
<g><path style="opacity:1" fill="#833ffe" d="M 6.5,31.5 C 7.16667,31.5 7.83333,31.5 8.5,31.5C 8.5,34.5 8.5,37.5 8.5,40.5C 7.83333,40.5 7.16667,40.5 6.5,40.5C 6.5,37.5 6.5,34.5 6.5,31.5 Z"/></g>
<g><path style="opacity:0.983" fill="#d695ff" d="M 20.5,38.5 C 22.5,38.5 24.5,38.5 26.5,38.5C 29.8333,39.8333 33.1667,39.8333 36.5,38.5C 38.5,38.5 40.5,38.5 42.5,38.5C 42.4894,40.0174 41.8228,41.1841 40.5,42C 34.5,45.3333 28.5,45.3333 22.5,42C 21.1772,41.1841 20.5106,40.0174 20.5,38.5 Z"/></g>
<g><path style="opacity:1" fill="#8a3cfe" d="M 54.5,33.5 C 55.1667,33.5 55.8333,33.5 56.5,33.5C 56.5,36.5 56.5,39.5 56.5,42.5C 55.8333,42.5 55.1667,42.5 54.5,42.5C 54.5,39.5 54.5,36.5 54.5,33.5 Z"/></g>
<g><path style="opacity:0.803" fill="#a033fe" d="M 6.5,40.5 C 7.16667,40.5 7.83333,40.5 8.5,40.5C 8.85831,43.2666 9.52498,45.9333 10.5,48.5C 9.5,48.5 8.5,48.5 7.5,48.5C 6.52693,46.0521 6.1936,43.3854 6.5,40.5 Z"/></g>
<g><path style="opacity:0.754" fill="#a730ff" d="M 54.5,42.5 C 55.1667,42.5 55.8333,42.5 56.5,42.5C 56.8893,45.5533 56.2227,48.22 54.5,50.5C 53.5,50.5 52.5,50.5 51.5,50.5C 52.8049,47.9469 53.8049,45.2802 54.5,42.5 Z"/></g>
<g><path style="opacity:0.882" fill="#bd27ff" d="M 7.5,48.5 C 8.5,48.5 9.5,48.5 10.5,48.5C 12.5084,51.8426 15.5084,53.6759 19.5,54C 27.5,54.6667 35.5,54.6667 43.5,54C 46.5651,53.6317 49.2318,52.465 51.5,50.5C 52.5,50.5 53.5,50.5 54.5,50.5C 53.6411,53.4521 51.6411,55.2854 48.5,56C 37.1667,56.6667 25.8333,56.6667 14.5,56C 10.5817,54.917 8.24834,52.417 7.5,48.5 Z"/></g>
</svg>
