<?xml version="1.0" encoding="UTF-8"?>
<!DOCTYPE svg PUBLIC "-//W3C//DTD SVG 1.1//EN" "http://www.w3.org/Graphics/SVG/1.1/DTD/svg11.dtd">
<svg xmlns="http://www.w3.org/2000/svg" version="1.1" width="64px" height="64px" style="shape-rendering:geometricPrecision; text-rendering:geometricPrecision; image-rendering:optimizeQuality; fill-rule:evenodd; clip-rule:evenodd" xmlns:xlink="http://www.w3.org/1999/xlink">
<g><path style="opacity:0.673" fill="#2e61ff" d="M 50.5,13.5 C 49.1667,13.5 47.8333,13.5 46.5,13.5C 41.8339,9.83423 36.5005,8.16757 30.5,8.5C 27.8333,7.83333 25.1667,7.16667 22.5,6.5C 29.9712,4.86696 37.3045,5.36696 44.5,8C 46.9962,9.33105 48.9962,11.1644 50.5,13.5 Z"/></g>
<g><path style="opacity:0.736" fill="#385eff" d="M 22.5,6.5 C 25.1667,7.16667 27.8333,7.83333 30.5,8.5C 26.0888,8.20277 22.0888,9.36944 18.5,12C 16.2968,14.3722 13.9635,16.5389 11.5,18.5C 10.7978,17.8843 9.79778,17.8843 8.5,18.5C 11.6423,12.6889 16.309,8.68886 22.5,6.5 Z"/></g>
<g><path style="opacity:0.791" fill="#455aff" d="M 38.5,20.5 C 37.5,20.5 36.5,20.5 35.5,20.5C 35.7373,19.209 35.404,18.209 34.5,17.5C 32.5,16.1667 30.5,16.1667 28.5,17.5C 27.6618,17.8417 27.3284,18.5084 27.5,19.5C 26.5,18.8333 25.5,18.1667 24.5,17.5C 27.1521,13.6856 30.8187,12.5189 35.5,14C 37.9193,15.5088 38.9193,17.6755 38.5,20.5 Z"/></g>
<g><path style="opacity:0.737" fill="#5052ff" d="M 46.5,13.5 C 47.8333,13.5 49.1667,13.5 50.5,13.5C 55.5631,18.3433 57.8965,24.3433 57.5,31.5C 56.391,31.5569 55.391,31.8902 54.5,32.5C 54.8417,24.8553 52.175,18.522 46.5,13.5 Z"/></g>
<g><path style="opacity:0.937" fill="#a2bbfe" d="M 28.5,17.5 C 30.5,17.5 32.5,17.5 34.5,17.5C 34.5,19.1667 34.5,20.8333 34.5,22.5C 34.5,22.8333 34.5,23.1667 34.5,23.5C 33.8333,23.5 33.5,23.8333 33.5,24.5C 32.8333,24.5 32.5,24.8333 32.5,25.5C 31.8333,25.5 31.1667,25.5 30.5,25.5C 30.5,24.8333 30.1667,24.5 29.5,24.5C 29.5,23.8333 29.1667,23.5 28.5,23.5C 28.5,23.1667 28.5,22.8333 28.5,22.5C 28.5,20.8333 28.5,19.1667 28.5,17.5 Z"/></g>
<g><path style="opacity:0.762" fill="#614dff" d="M 24.5,17.5 C 25.5,18.1667 26.5,18.8333 27.5,19.5C 27.2627,20.791 27.596,21.791 28.5,22.5C 28.5,22.8333 28.5,23.1667 28.5,23.5C 29.1667,23.5 29.5,23.8333 29.5,24.5C 30.1667,24.5 30.5,24.8333 30.5,25.5C 31.1667,26.8333 31.8333,26.8333 32.5,25.5C 33.1667,25.5 33.5,25.1667 33.5,24.5C 34.1667,24.5 34.5,24.1667 34.5,23.5C 34.5,23.1667 34.5,22.8333 34.5,22.5C 35.3382,22.1583 35.6716,21.4916 35.5,20.5C 36.5,20.5 37.5,20.5 38.5,20.5C 38.1372,25.2295 35.8039,28.5628 31.5,30.5C 26.1875,27.8356 23.8542,23.5022 24.5,17.5 Z"/></g>
<g><path style="opacity:0.975" fill="#624cff" d="M 11.5,18.5 C 9.26399,22.8814 8.26399,27.5481 8.5,32.5C 7.60895,31.8902 6.60895,31.5569 5.5,31.5C 5.12362,26.7387 6.12362,22.4054 8.5,18.5C 9.79778,17.8843 10.7978,17.8843 11.5,18.5 Z"/></g>
<g><path style="opacity:0.861" fill="#7646ff" d="M 29.5,37.5 C 28.5,37.5 27.5,37.5 26.5,37.5C 26.5,37.1667 26.5,36.8333 26.5,36.5C 27.404,35.791 27.7373,34.791 27.5,33.5C 24.2869,33.19 21.2869,33.5233 18.5,34.5C 17.596,35.209 17.2627,36.209 17.5,37.5C 16.5,37.5 15.5,37.5 14.5,37.5C 14.7244,32.115 17.5577,29.7817 23,30.5C 29.4087,29.4223 31.5754,31.7557 29.5,37.5 Z M 18.5,34.5 C 21.2869,33.5233 24.2869,33.19 27.5,33.5C 27.7373,34.791 27.404,35.791 26.5,36.5C 24.3647,34.631 21.6981,33.9644 18.5,34.5 Z"/></g>
<g><path style="opacity:0.818" fill="#7545ff" d="M 48.5,37.5 C 47.391,37.4431 46.391,37.1098 45.5,36.5C 45.6716,35.5084 45.3382,34.8417 44.5,34.5C 43.2067,33.8418 41.7067,33.5085 40,33.5C 38.0145,33.5687 36.5145,34.2353 35.5,35.5C 34.5,35.5 33.5,35.5 32.5,35.5C 32.2267,33.549 32.8934,32.049 34.5,31C 38.1667,30.3333 41.8333,30.3333 45.5,31C 47.9193,32.5088 48.9193,34.6755 48.5,37.5 Z"/></g>
<g><path style="opacity:0.973" fill="#b8b8ff" d="M 18.5,34.5 C 21.6981,33.9644 24.3647,34.631 26.5,36.5C 25.6618,36.8417 25.3284,37.5084 25.5,38.5C 24.8333,38.5 24.5,38.8333 24.5,39.5C 24.5,40.1667 24.1667,40.5 23.5,40.5C 22.1667,40.5 20.8333,40.5 19.5,40.5C 18.8333,40.5 18.5,40.1667 18.5,39.5C 18.5,37.8333 18.5,36.1667 18.5,34.5 Z"/></g>
<g><path style="opacity:0.853" fill="#b8b6ff" d="M 44.5,34.5 C 44.5,36.1667 44.5,37.8333 44.5,39.5C 44.5,40.1667 44.1667,40.5 43.5,40.5C 42.1667,40.5 40.8333,40.5 39.5,40.5C 38.8333,40.5 38.5,40.1667 38.5,39.5C 38.5,38.8333 38.1667,38.5 37.5,38.5C 37.6716,37.5084 37.3382,36.8417 36.5,36.5C 38.6353,34.631 41.3019,33.9644 44.5,34.5 Z"/></g>
<g><path style="opacity:0.835" fill="#9139ff" d="M 14.5,37.5 C 15.5,37.5 16.5,37.5 17.5,37.5C 17.3284,38.4916 17.6618,39.1583 18.5,39.5C 18.5,40.1667 18.8333,40.5 19.5,40.5C 20.8333,41.8333 22.1667,41.8333 23.5,40.5C 24.1667,40.5 24.5,40.1667 24.5,39.5C 25.1667,39.5 25.5,39.1667 25.5,38.5C 26.1667,38.5 26.5,38.1667 26.5,37.5C 27.5,37.5 28.5,37.5 29.5,37.5C 27.9942,44.0462 23.9942,46.2128 17.5,44C 15.0807,42.4912 14.0807,40.3245 14.5,37.5 Z"/></g>
<g><path style="opacity:1" fill="#903aff" d="M 32.5,35.5 C 33.5,35.5 34.5,35.5 35.5,35.5C 35.5,36.1667 35.8333,36.5 36.5,36.5C 36.3284,37.4916 36.6618,38.1583 37.5,38.5C 38.1667,38.5 38.5,38.8333 38.5,39.5C 38.5,40.1667 38.8333,40.5 39.5,40.5C 40.8333,41.8333 42.1667,41.8333 43.5,40.5C 44.1667,40.5 44.5,40.1667 44.5,39.5C 45.404,38.791 45.7373,37.791 45.5,36.5C 46.391,37.1098 47.391,37.4431 48.5,37.5C 47.7416,44.1094 44.0749,46.2761 37.5,44C 34.9277,41.6872 33.261,38.8539 32.5,35.5 Z"/></g>
<g><path style="opacity:0.667" fill="#9f35ff" d="M 5.5,31.5 C 6.60895,31.5569 7.60895,31.8902 8.5,32.5C 8.81223,40.793 12.4789,47.1263 19.5,51.5C 18.4324,52.4345 17.099,52.7678 15.5,52.5C 8.35012,47.413 5.01679,40.413 5.5,31.5 Z"/></g>
<g><path style="opacity:0.727" fill="#9f35ff" d="M 57.5,31.5 C 57.5463,40.7408 53.8796,48.0742 46.5,53.5C 45.5,52.8333 44.5,52.1667 43.5,51.5C 50.5211,47.1263 54.1878,40.793 54.5,32.5C 55.391,31.8902 56.391,31.5569 57.5,31.5 Z"/></g>
<g><path style="opacity:0.734" fill="#b828ff" d="M 19.5,51.5 C 27.5,55.5 35.5,55.5 43.5,51.5C 44.5,52.1667 45.5,52.8333 46.5,53.5C 35.8899,59.0965 25.5566,58.7631 15.5,52.5C 17.099,52.7678 18.4324,52.4345 19.5,51.5 Z"/></g>
</svg>
