<?xml version="1.0" encoding="UTF-8"?>
<!DOCTYPE svg PUBLIC "-//W3C//DTD SVG 1.1//EN" "http://www.w3.org/Graphics/SVG/1.1/DTD/svg11.dtd">
<svg xmlns="http://www.w3.org/2000/svg" version="1.1" width="48px" height="48px" style="shape-rendering:geometricPrecision; text-rendering:geometricPrecision; image-rendering:optimizeQuality; fill-rule:evenodd; clip-rule:evenodd" xmlns:xlink="http://www.w3.org/1999/xlink">
<g><path style="opacity:1" fill="#5f7d8a" d="M 5.5,9.5 C 17.5,9.5 29.5,9.5 41.5,9.5C 41.5,10.8333 41.5,12.1667 41.5,13.5C 29.5,13.5 17.5,13.5 5.5,13.5C 5.5,12.1667 5.5,10.8333 5.5,9.5 Z"/></g>
<g><path style="opacity:1" fill="#5f7d8a" d="M 5.5,21.5 C 17.5,21.5 29.5,21.5 41.5,21.5C 41.5,22.8333 41.5,24.1667 41.5,25.5C 29.5,25.5 17.5,25.5 5.5,25.5C 5.5,24.1667 5.5,22.8333 5.5,21.5 Z"/></g>
<g><path style="opacity:1" fill="#5f7d8a" d="M 5.5,33.5 C 17.5,33.5 29.5,33.5 41.5,33.5C 41.5,34.8333 41.5,36.1667 41.5,37.5C 29.5,37.5 17.5,37.5 5.5,37.5C 5.5,36.1667 5.5,34.8333 5.5,33.5 Z"/></g>
</svg>
