<?xml version="1.0" encoding="UTF-8"?>
<!DOCTYPE svg PUBLIC "-//W3C//DTD SVG 1.1//EN" "http://www.w3.org/Graphics/SVG/1.1/DTD/svg11.dtd">
<svg xmlns="http://www.w3.org/2000/svg" version="1.1" width="64px" height="64px" style="shape-rendering:geometricPrecision; text-rendering:geometricPrecision; image-rendering:optimizeQuality; fill-rule:evenodd; clip-rule:evenodd" xmlns:xlink="http://www.w3.org/1999/xlink">
<g><path style="opacity:0.976" fill="#1f6aff" d="M 54.5,14.5 C 53.8333,14.5 53.1667,14.5 52.5,14.5C 52.0557,12.8868 51.0557,11.7202 49.5,11C 37.5,10.3333 25.5,10.3333 13.5,11C 11.9443,11.7202 10.9443,12.8868 10.5,14.5C 9.83333,14.5 9.16667,14.5 8.5,14.5C 8.17798,12.2776 8.84464,10.4443 10.5,9C 24.5,8.33333 38.5,8.33333 52.5,9C 54.1554,10.4443 54.822,12.2776 54.5,14.5 Z"/></g>
<g><path style="opacity:0.942" fill="#79c5ff" d="M 41.5,22.5 C 36.1667,22.5 30.8333,22.5 25.5,22.5C 25.5,21.5 25.5,20.5 25.5,19.5C 30.773,18.3992 36.1063,17.7325 41.5,17.5C 41.5,19.1667 41.5,20.8333 41.5,22.5 Z"/></g>
<g><path style="opacity:1" fill="#465aff" d="M 8.5,14.5 C 9.16667,14.5 9.83333,14.5 10.5,14.5C 10.5,17.5 10.5,20.5 10.5,23.5C 9.83333,23.5 9.16667,23.5 8.5,23.5C 8.5,20.5 8.5,17.5 8.5,14.5 Z"/></g>
<g><path style="opacity:1" fill="#465aff" d="M 52.5,14.5 C 53.1667,14.5 53.8333,14.5 54.5,14.5C 54.5,17.5 54.5,20.5 54.5,23.5C 53.8333,23.5 53.1667,23.5 52.5,23.5C 52.5,20.5 52.5,17.5 52.5,14.5 Z"/></g>
<g><path style="opacity:0.959" fill="#8ac0fe" d="M 25.5,22.5 C 30.8333,22.5 36.1667,22.5 41.5,22.5C 41.5,24.5 41.5,26.5 41.5,28.5C 40.8333,28.5 40.1667,28.5 39.5,28.5C 39.5,27.1667 39.5,25.8333 39.5,24.5C 36.4781,24.804 33.4781,25.304 30.5,26C 28.8807,26.2355 27.8807,27.0689 27.5,28.5C 26.8333,28.5 26.1667,28.5 25.5,28.5C 25.5,26.5 25.5,24.5 25.5,22.5 Z"/></g>
<g><path style="opacity:1" fill="#664cfe" d="M 8.5,23.5 C 9.16667,23.5 9.83333,23.5 10.5,23.5C 10.5,26.1667 10.5,28.8333 10.5,31.5C 9.83333,31.5 9.16667,31.5 8.5,31.5C 8.5,28.8333 8.5,26.1667 8.5,23.5 Z"/></g>
<g><path style="opacity:1" fill="#664cfe" d="M 52.5,23.5 C 53.1667,23.5 53.8333,23.5 54.5,23.5C 54.5,26.1667 54.5,28.8333 54.5,31.5C 53.8333,31.5 53.1667,31.5 52.5,31.5C 52.5,28.8333 52.5,26.1667 52.5,23.5 Z"/></g>
<g><path style="opacity:0.938" fill="#b9b5fe" d="M 39.5,28.5 C 40.1667,28.5 40.8333,28.5 41.5,28.5C 41.5,31.5 41.5,34.5 41.5,37.5C 38.5,37.5 35.5,37.5 32.5,37.5C 34.5321,36.0933 36.6987,34.7599 39,33.5C 39.4935,31.8659 39.6602,30.1992 39.5,28.5 Z"/></g>
<g><path style="opacity:0.855" fill="#c4b2fe" d="M 25.5,28.5 C 26.1667,28.5 26.8333,28.5 27.5,28.5C 27.5,32.5 27.5,36.5 27.5,40.5C 24.5,40.5 21.5,40.5 18.5,40.5C 20.5321,39.0933 22.6987,37.7599 25,36.5C 25.4974,33.854 25.6641,31.1873 25.5,28.5 Z"/></g>
<g><path style="opacity:0.935" fill="#ccb1fe" d="M 32.5,37.5 C 35.5,37.5 38.5,37.5 41.5,37.5C 40.5345,42.3833 37.7012,43.7166 33,41.5C 32.51,40.2068 32.3433,38.8734 32.5,37.5 Z"/></g>
<g><path style="opacity:1" fill="#8c3cfe" d="M 8.5,31.5 C 9.16667,31.5 9.83333,31.5 10.5,31.5C 10.5,35.1667 10.5,38.8333 10.5,42.5C 9.83333,42.5 9.16667,42.5 8.5,42.5C 8.5,38.8333 8.5,35.1667 8.5,31.5 Z"/></g>
<g><path style="opacity:1" fill="#8c3cfe" d="M 52.5,31.5 C 53.1667,31.5 53.8333,31.5 54.5,31.5C 54.5,35.1667 54.5,38.8333 54.5,42.5C 53.8333,42.5 53.1667,42.5 52.5,42.5C 52.5,38.8333 52.5,35.1667 52.5,31.5 Z"/></g>
<g><path style="opacity:0.923" fill="#dbadfe" d="M 18.5,40.5 C 21.5,40.5 24.5,40.5 27.5,40.5C 26.5345,45.3833 23.7012,46.7166 19,44.5C 18.51,43.2068 18.3433,41.8734 18.5,40.5 Z"/></g>
<g><path style="opacity:0.973" fill="#c025ff" d="M 8.5,42.5 C 9.16667,42.5 9.83333,42.5 10.5,42.5C 10.3367,44.8568 10.5034,47.1902 11,49.5C 11.5,50.6667 12.3333,51.5 13.5,52C 25.5,52.6667 37.5,52.6667 49.5,52C 50.6667,51.5 51.5,50.6667 52,49.5C 52.4966,47.1902 52.6633,44.8568 52.5,42.5C 53.1667,42.5 53.8333,42.5 54.5,42.5C 54.665,45.8499 54.4983,49.1832 54,52.5C 53.5,53 53,53.5 52.5,54C 38.5,54.6667 24.5,54.6667 10.5,54C 10,53.5 9.5,53 9,52.5C 8.50166,49.1832 8.33499,45.8499 8.5,42.5 Z"/></g>
</svg>
