<?xml version="1.0" encoding="UTF-8"?>
<!DOCTYPE svg PUBLIC "-//W3C//DTD SVG 1.1//EN" "http://www.w3.org/Graphics/SVG/1.1/DTD/svg11.dtd">
<svg xmlns="http://www.w3.org/2000/svg" version="1.1" width="64px" height="64px" style="shape-rendering:geometricPrecision; text-rendering:geometricPrecision; image-rendering:optimizeQuality; fill-rule:evenodd; clip-rule:evenodd" xmlns:xlink="http://www.w3.org/1999/xlink">
<g><path style="opacity:0.794" fill="#2468ff" d="M 38.5,9.5 C 36.901,9.23219 35.5676,9.56552 34.5,10.5C 30.2984,10.1832 26.2984,10.5166 22.5,11.5C 21.8333,11.5 21.1667,11.5 20.5,11.5C 18.8333,11.5 17.1667,11.5 15.5,11.5C 16.9746,9.59047 18.9746,8.42381 21.5,8C 26.1667,7.33333 30.8333,7.33333 35.5,8C 36.7375,8.23209 37.7375,8.73209 38.5,9.5 Z"/></g>
<g><path style="opacity:0.787" fill="#3362ff" d="M 38.5,9.5 C 43.0836,11.0823 46.4169,14.0823 48.5,18.5C 48.631,19.2389 48.4643,19.9056 48,20.5C 47.31,19.2617 46.81,19.2617 46.5,20.5C 43.401,16.0661 39.401,12.7328 34.5,10.5C 35.5676,9.56552 36.901,9.23219 38.5,9.5 Z"/></g>
<g><path style="opacity:0.909" fill="#3261ff" d="M 15.5,11.5 C 17.1667,11.5 18.8333,11.5 20.5,11.5C 21.1667,12.8333 21.8333,12.8333 22.5,11.5C 24.5,11.5 26.5,11.5 28.5,11.5C 28.5,12.5 28.5,13.5 28.5,14.5C 24.7515,14.3066 21.4182,15.3066 18.5,17.5C 17.609,16.8902 16.609,16.5569 15.5,16.5C 15.5,16.1667 15.5,15.8333 15.5,15.5C 16.1667,15.5 16.5,15.1667 16.5,14.5C 17.8333,14.1667 17.8333,13.8333 16.5,13.5C 15.1667,13.5 13.8333,13.5 12.5,13.5C 12.9731,12.0937 13.9731,11.427 15.5,11.5 Z"/></g>
<g><path style="opacity:0.8" fill="#3e5dff" d="M 12.5,13.5 C 13.8333,13.5 15.1667,13.5 16.5,13.5C 16.5,13.8333 16.5,14.1667 16.5,14.5C 15.8333,14.5 15.5,14.8333 15.5,15.5C 14.8333,15.5 14.5,15.8333 14.5,16.5C 13.8333,16.5 13.5,16.8333 13.5,17.5C 12.8333,17.5 12.5,17.8333 12.5,18.5C 11.8333,18.5 11.5,18.8333 11.5,19.5C 10.8333,19.5 10.5,19.8333 10.5,20.5C 9.16667,20.5 8.5,19.8333 8.5,18.5C 9.1237,16.246 10.457,14.5794 12.5,13.5 Z"/></g>
<g><path style="opacity:0.853" fill="#5150ff" d="M 14.5,16.5 C 14.8333,16.5 15.1667,16.5 15.5,16.5C 16.609,16.5569 17.609,16.8902 18.5,17.5C 16.163,19.8475 14.163,22.5142 12.5,25.5C 11.2011,24.91 10.3678,23.91 10,22.5C 8.71138,25.3508 8.21138,28.3508 8.5,31.5C 7.77765,30.4489 6.77765,29.7822 5.5,29.5C 5.12571,25.3526 6.12571,21.6859 8.5,18.5C 8.5,19.8333 9.16667,20.5 10.5,20.5C 10.5,19.8333 10.8333,19.5 11.5,19.5C 12.1667,19.5 12.5,19.1667 12.5,18.5C 13.1667,18.5 13.5,18.1667 13.5,17.5C 14.1667,17.5 14.5,17.1667 14.5,16.5 Z"/></g>
<g><path style="opacity:0.987" fill="#94bdfe" d="M 23.5,28.5 C 20.8333,28.5 18.1667,28.5 15.5,28.5C 15.1547,25.512 16.488,24.1787 19.5,24.5C 22.512,24.1787 23.8453,25.512 23.5,28.5 Z"/></g>
<g><path style="opacity:0.987" fill="#94bdfe" d="M 41.5,28.5 C 38.8333,28.5 36.1667,28.5 33.5,28.5C 33.1547,25.512 34.488,24.1787 37.5,24.5C 40.512,24.1787 41.8453,25.512 41.5,28.5 Z"/></g>
<g><path style="opacity:0.859" fill="#c1b3fe" d="M 15.5,28.5 C 18.1667,28.5 20.8333,28.5 23.5,28.5C 23.8453,31.488 22.512,32.8213 19.5,32.5C 16.488,32.8213 15.1547,31.488 15.5,28.5 Z"/></g>
<g><path style="opacity:0.859" fill="#c1b3fe" d="M 33.5,28.5 C 36.1667,28.5 38.8333,28.5 41.5,28.5C 41.8453,31.488 40.512,32.8213 37.5,32.5C 34.488,32.8213 33.1547,31.488 33.5,28.5 Z"/></g>
<g><path style="opacity:0.743" fill="#664bff" d="M 48.5,18.5 C 51.0897,22.6932 52.0897,27.3599 51.5,32.5C 50.391,32.5569 49.391,32.8902 48.5,33.5C 48.8501,28.9691 48.1834,24.6358 46.5,20.5C 46.81,19.2617 47.31,19.2617 48,20.5C 48.4643,19.9056 48.631,19.2389 48.5,18.5 Z"/></g>
<g><path style="opacity:0.79" fill="#8440ff" d="M 51.5,32.5 C 54.2508,34.9323 56.2508,37.9323 57.5,41.5C 56.5,41.5 55.5,41.5 54.5,41.5C 51.8325,36.9719 47.8325,35.3053 42.5,36.5C 41.1667,36.5 39.8333,36.5 38.5,36.5C 39.0577,35.2101 40.0577,34.3768 41.5,34C 43.8098,33.5034 46.1432,33.3367 48.5,33.5C 49.391,32.8902 50.391,32.5569 51.5,32.5 Z"/></g>
<g><path style="opacity:0.715" fill="#8f39fe" d="M 38.5,36.5 C 39.8333,36.5 41.1667,36.5 42.5,36.5C 41.5423,37.9616 40.3756,39.2949 39,40.5C 38.5065,42.1341 38.3398,43.8008 38.5,45.5C 37.7777,44.4489 36.7777,43.7822 35.5,43.5C 35.1663,40.509 36.1663,38.1757 38.5,36.5 Z"/></g>
<g><path style="opacity:0.964" fill="#98bcfe" d="M 34.5,39.5 C 30.5,39.5 26.5,39.5 22.5,39.5C 22.5,38.1667 22.5,36.8333 22.5,35.5C 26.5,35.5 30.5,35.5 34.5,35.5C 34.5,36.8333 34.5,38.1667 34.5,39.5 Z"/></g>
<g><path style="opacity:0.754" fill="#8d3cff" d="M 5.5,29.5 C 6.77765,29.7822 7.77765,30.4489 8.5,31.5C 8.6243,35.4124 9.6243,39.0791 11.5,42.5C 11.1583,43.3382 10.4916,43.6716 9.5,43.5C 7.59047,42.0254 6.42381,40.0254 6,37.5C 5.50258,34.854 5.33591,32.1873 5.5,29.5 Z"/></g>
<g><path style="opacity:0.866" fill="#c5b1fe" d="M 22.5,39.5 C 26.5,39.5 30.5,39.5 34.5,39.5C 33.8862,42.7658 31.8862,44.0991 28.5,43.5C 25.1138,44.0991 23.1138,42.7658 22.5,39.5 Z"/></g>
<g><path style="opacity:0.789" fill="#a430ff" d="M 54.5,41.5 C 55.5,41.5 56.5,41.5 57.5,41.5C 57.8064,44.3854 57.4731,47.0521 56.5,49.5C 56.1583,48.6618 55.4916,48.3284 54.5,48.5C 54.6602,46.8008 54.4935,45.1341 54,43.5C 51.6506,46.0168 49.1506,48.3501 46.5,50.5C 44.6841,49.1851 43.0175,47.6851 41.5,46C 42.3333,45.1667 43.1667,44.3333 44,43.5C 44.8373,45.0074 46.0039,45.5074 47.5,45C 49,43.5 50.5,42 52,40.5C 52.8382,41.999 53.6715,42.3324 54.5,41.5 Z"/></g>
<g><path style="opacity:0.753" fill="#a72eff" d="M 11.5,42.5 C 13.8585,44.5293 16.1918,46.5293 18.5,48.5C 17.5,48.8333 16.8333,49.5 16.5,50.5C 13.1447,49.1448 10.8114,46.8114 9.5,43.5C 10.4916,43.6716 11.1583,43.3382 11.5,42.5 Z"/></g>
<g><path style="opacity:0.593" fill="#b827ff" d="M 18.5,48.5 C 21.9664,50.0916 25.6331,50.7583 29.5,50.5C 29.5,50.8333 29.5,51.1667 29.5,51.5C 26.7212,51.2786 24.0545,51.612 21.5,52.5C 19.4471,52.5979 17.7804,51.9313 16.5,50.5C 16.8333,49.5 17.5,48.8333 18.5,48.5 Z"/></g>
<g><path style="opacity:0.617" fill="#b42aff" d="M 35.5,43.5 C 36.7777,43.7822 37.7777,44.4489 38.5,45.5C 38.615,47.9468 39.615,49.9468 41.5,51.5C 40.561,51.6262 39.561,51.9595 38.5,52.5C 37.5,52.5 36.5,52.5 35.5,52.5C 33.6208,51.6586 31.6208,51.3253 29.5,51.5C 29.5,51.1667 29.5,50.8333 29.5,50.5C 34.9064,51.2647 36.9064,48.9313 35.5,43.5 Z"/></g>
<g><path style="opacity:0.896" fill="#be26ff" d="M 29.5,51.5 C 31.6208,51.3253 33.6208,51.6586 35.5,52.5C 30.8333,53.8333 26.1667,53.8333 21.5,52.5C 24.0545,51.612 26.7212,51.2786 29.5,51.5 Z"/></g>
<g><path style="opacity:0.792" fill="#bf25ff" d="M 54.5,48.5 C 55.4916,48.3284 56.1583,48.6618 56.5,49.5C 55.7457,52.091 54.079,53.9243 51.5,55C 48.1667,55.6667 44.8333,55.6667 41.5,55C 40.0577,54.6232 39.0577,53.7899 38.5,52.5C 39.561,51.9595 40.561,51.6262 41.5,51.5C 46.5898,53.4942 50.9232,52.4942 54.5,48.5 Z"/></g>
</svg>
