<?xml version="1.0" encoding="UTF-8"?>
<!DOCTYPE svg PUBLIC "-//W3C//DTD SVG 1.1//EN" "http://www.w3.org/Graphics/SVG/1.1/DTD/svg11.dtd">
<svg xmlns="http://www.w3.org/2000/svg" version="1.1" width="64px" height="64px" style="shape-rendering:geometricPrecision; text-rendering:geometricPrecision; image-rendering:optimizeQuality; fill-rule:evenodd; clip-rule:evenodd" xmlns:xlink="http://www.w3.org/1999/xlink">
<g><path style="opacity:0.702" fill="#2468ff" d="M 35.5,9.5 C 34.391,9.55688 33.391,9.89022 32.5,10.5C 32.1667,10.5 31.8333,10.5 31.5,10.5C 31.1583,9.66175 30.4916,9.32842 29.5,9.5C 26.1667,8.16667 22.8333,8.16667 19.5,9.5C 18.5084,9.32842 17.8417,9.66175 17.5,10.5C 17.1667,10.5 16.8333,10.5 16.5,10.5C 15.1667,10.5 13.8333,10.5 12.5,10.5C 15.5065,6.66887 19.5065,5.0022 24.5,5.5C 28.9702,4.91254 32.6368,6.24588 35.5,9.5 Z"/></g>
<g><path style="opacity:0.813" fill="#3860ff" d="M 19.5,9.5 C 22.8333,9.5 26.1667,9.5 29.5,9.5C 29.8417,10.3382 30.5084,10.6716 31.5,10.5C 31.5,10.8333 31.5,11.1667 31.5,11.5C 28.6146,11.1936 25.9479,11.5269 23.5,12.5C 22.209,12.2627 21.209,12.596 20.5,13.5C 19.5084,13.3284 18.8417,13.6618 18.5,14.5C 17.8333,14.5 17.5,14.8333 17.5,15.5C 16.8333,15.5 16.5,15.8333 16.5,16.5C 15.6618,16.8417 15.3284,17.5084 15.5,18.5C 14.5386,20.2646 14.2053,22.2646 14.5,24.5C 13.5,25.8333 12.5,25.8333 11.5,24.5C 11.5,22.1667 11.5,19.8333 11.5,17.5C 12.3382,17.1583 12.6716,16.4916 12.5,15.5C 13.1667,15.5 13.5,15.1667 13.5,14.5C 13.5,14.1667 13.5,13.8333 13.5,13.5C 14.1667,13.5 14.5,13.1667 14.5,12.5C 15.1667,12.5 15.5,12.1667 15.5,11.5C 15.8333,11.5 16.1667,11.5 16.5,11.5C 17.1667,11.5 17.5,11.1667 17.5,10.5C 18.4916,10.6716 19.1583,10.3382 19.5,9.5 Z"/></g>
<g><path style="opacity:0.797" fill="#3b5eff" d="M 35.5,9.5 C 40.2086,12.9253 42.2086,17.5919 41.5,23.5C 40.2223,23.2178 39.2223,22.5511 38.5,21.5C 38.3781,17.1617 38.0447,16.8284 37.5,20.5C 36.5,20.5 35.5,20.5 34.5,20.5C 33.0993,14.7711 29.4326,12.1044 23.5,12.5C 25.9479,11.5269 28.6146,11.1936 31.5,11.5C 32.1667,11.5 32.5,11.1667 32.5,10.5C 33.391,9.89022 34.391,9.55688 35.5,9.5 Z"/></g>
<g><path style="opacity:0.738" fill="#3b5cff" d="M 12.5,10.5 C 13.8333,10.5 15.1667,10.5 16.5,10.5C 16.5,10.8333 16.5,11.1667 16.5,11.5C 16.1667,11.5 15.8333,11.5 15.5,11.5C 14.8333,11.5 14.5,11.8333 14.5,12.5C 13.8333,12.5 13.5,12.8333 13.5,13.5C 13.5,13.8333 13.5,14.1667 13.5,14.5C 12.8333,14.5 12.5,14.8333 12.5,15.5C 11.6618,15.8417 11.3284,16.5084 11.5,17.5C 10.5386,19.2646 10.2053,21.2646 10.5,23.5C 9.89992,22.0998 8.89992,21.0998 7.5,20.5C 7.59195,16.3159 9.25861,12.9826 12.5,10.5 Z"/></g>
<g><path style="opacity:0.971" fill="#a0bafe" d="M 20.5,13.5 C 21.8333,13.5 23.1667,13.5 24.5,13.5C 24.5,15.1667 24.5,16.8333 24.5,18.5C 21.8333,18.5 19.1667,18.5 16.5,18.5C 16.5,17.8333 16.5,17.1667 16.5,16.5C 17.1667,16.5 17.5,16.1667 17.5,15.5C 18.1667,15.5 18.5,15.1667 18.5,14.5C 19.4916,14.6716 20.1583,14.3382 20.5,13.5 Z"/></g>
<g><path style="opacity:0.995" fill="#ceb0fe" d="M 15.5,18.5 C 15.8333,18.5 16.1667,18.5 16.5,18.5C 19.1667,18.5 21.8333,18.5 24.5,18.5C 24.5,19.8333 24.5,21.1667 24.5,22.5C 21.5,22.5 18.5,22.5 15.5,22.5C 15.5,21.1667 15.5,19.8333 15.5,18.5 Z"/></g>
<g><path style="opacity:0.689" fill="#634dfe" d="M 34.5,20.5 C 35.5,20.5 36.5,20.5 37.5,20.5C 37.5,22.8333 37.5,25.1667 37.5,27.5C 36.6618,27.8417 36.3284,28.5084 36.5,29.5C 35.8333,29.5 35.5,29.8333 35.5,30.5C 35.5,30.8333 35.5,31.1667 35.5,31.5C 35.1667,31.5 34.8333,31.5 34.5,31.5C 32.602,32.0965 30.9354,32.0965 29.5,31.5C 33.5778,29.0066 35.2445,25.3399 34.5,20.5 Z"/></g>
<g><path style="opacity:0.689" fill="#6749ff" d="M 7.5,20.5 C 8.89992,21.0998 9.89992,22.0998 10.5,23.5C 10.6219,27.8383 10.9553,28.1716 11.5,24.5C 12.5,25.8333 13.5,25.8333 14.5,24.5C 15.0102,27.6743 16.6769,30.0077 19.5,31.5C 18.4324,32.4345 17.099,32.7678 15.5,32.5C 14.8333,32.5 14.5,32.8333 14.5,33.5C 13.8333,33.8333 13.1667,34.1667 12.5,34.5C 8.11506,30.9238 6.44839,26.2572 7.5,20.5 Z"/></g>
<g><path style="opacity:0.611" fill="#7044ff" d="M 38.5,21.5 C 39.2223,22.5511 40.2223,23.2178 41.5,23.5C 41.477,28.2094 39.8104,32.2094 36.5,35.5C 34.8333,35.5 33.1667,35.5 31.5,35.5C 30.8333,34.1667 30.1667,34.1667 29.5,35.5C 26.1667,35.5 22.8333,35.5 19.5,35.5C 19.1583,34.6618 18.4916,34.3284 17.5,34.5C 17.1667,33.1667 16.8333,33.1667 16.5,34.5C 15.8333,34.5 15.5,34.1667 15.5,33.5C 15.5,33.1667 15.5,32.8333 15.5,32.5C 17.099,32.7678 18.4324,32.4345 19.5,31.5C 22.8333,32.8333 26.1667,32.8333 29.5,31.5C 30.9354,32.0965 32.602,32.0965 34.5,31.5C 34.8333,32.8333 35.1667,32.8333 35.5,31.5C 35.5,31.1667 35.5,30.8333 35.5,30.5C 36.1667,30.5 36.5,30.1667 36.5,29.5C 37.3382,29.1583 37.6716,28.4916 37.5,27.5C 38.4614,25.7354 38.7947,23.7354 38.5,21.5 Z"/></g>
<g><path style="opacity:0.728" fill="#833ffe" d="M 14.5,33.5 C 14.8333,33.5 15.1667,33.5 15.5,33.5C 15.5,34.1667 15.8333,34.5 16.5,34.5C 16.8333,34.5 17.1667,34.5 17.5,34.5C 17.8417,35.3382 18.5084,35.6716 19.5,35.5C 22.8333,36.8333 26.1667,36.8333 29.5,35.5C 30.1667,35.5 30.8333,35.5 31.5,35.5C 33.1667,35.5 34.8333,35.5 36.5,35.5C 37.5,35.8333 38.1667,36.5 38.5,37.5C 37.609,38.1098 36.609,38.4431 35.5,38.5C 33.9106,37.3789 32.2439,37.5456 30.5,39C 26.5,39.6667 22.5,39.6667 18.5,39C 15.8936,38.2082 13.8936,36.7082 12.5,34.5C 13.1667,34.1667 13.8333,33.8333 14.5,33.5 Z"/></g>
<g><path style="opacity:0.777" fill="#8f3bff" d="M 38.5,37.5 C 41.037,37.7912 43.7037,37.9578 46.5,38C 47.056,38.3826 47.3893,38.8826 47.5,39.5C 47.0269,40.9063 46.0269,41.573 44.5,41.5C 44.1667,40.1667 43.8333,40.1667 43.5,41.5C 42.5084,41.3284 41.8417,41.6618 41.5,42.5C 40.8333,42.5 40.5,42.8333 40.5,43.5C 40.1667,43.5 39.8333,43.5 39.5,43.5C 38.1667,43.5 36.8333,43.5 35.5,43.5C 35.9528,42.5416 36.6195,41.7083 37.5,41C 36.6195,40.2917 35.9528,39.4584 35.5,38.5C 36.609,38.4431 37.609,38.1098 38.5,37.5 Z"/></g>
<g><path style="opacity:0.719" fill="#9b33ff" d="M 47.5,39.5 C 48.803,41.1423 50.1363,42.8089 51.5,44.5C 50.0641,44.2858 48.3974,44.6191 46.5,45.5C 47.0606,42.8133 46.3939,42.8133 44.5,45.5C 43.8333,45.5 43.5,45.8333 43.5,46.5C 42.8333,46.5 42.5,46.8333 42.5,47.5C 41.8333,47.5 41.5,47.8333 41.5,48.5C 39.9582,47.6993 38.2915,47.366 36.5,47.5C 35.7659,46.2921 35.4326,44.9587 35.5,43.5C 36.8333,43.5 38.1667,43.5 39.5,43.5C 39.8333,44.8333 40.1667,44.8333 40.5,43.5C 41.1667,43.5 41.5,43.1667 41.5,42.5C 42.4916,42.6716 43.1583,42.3382 43.5,41.5C 43.8333,41.5 44.1667,41.5 44.5,41.5C 46.0269,41.573 47.0269,40.9063 47.5,39.5 Z M 46.5,45.5 C 45.8333,45.5 45.1667,45.5 44.5,45.5C 46.3939,42.8133 47.0606,42.8133 46.5,45.5 Z"/></g>
<g><path style="opacity:0.821" fill="#a430ff" d="M 51.5,44.5 C 52.8333,45.1667 53.8333,46.1667 54.5,47.5C 53.8333,48.1667 53.1667,48.8333 52.5,49.5C 51.2058,48.7101 50.0391,47.7101 49,46.5C 47.2927,48.0375 45.7927,49.7041 44.5,51.5C 43.1667,51.5 41.8333,51.5 40.5,51.5C 38.8333,50.5 37.5,49.1667 36.5,47.5C 38.2915,47.366 39.9582,47.6993 41.5,48.5C 42.1667,48.5 42.5,48.1667 42.5,47.5C 43.1667,47.5 43.5,47.1667 43.5,46.5C 44.1667,46.5 44.5,46.1667 44.5,45.5C 45.1667,45.5 45.8333,45.5 46.5,45.5C 48.3974,44.6191 50.0641,44.2858 51.5,44.5 Z"/></g>
<g><path style="opacity:0.735" fill="#bb27ff" d="M 54.5,47.5 C 56.6549,55.1847 53.6549,58.3514 45.5,57C 43.6266,55.2962 41.9599,53.4628 40.5,51.5C 41.8333,51.5 43.1667,51.5 44.5,51.5C 46.5628,54.9729 49.0628,55.3062 52,52.5C 52.4828,51.552 52.6495,50.552 52.5,49.5C 53.1667,48.8333 53.8333,48.1667 54.5,47.5 Z"/></g>
</svg>
