<?xml version="1.0" encoding="UTF-8"?>
<!DOCTYPE svg PUBLIC "-//W3C//DTD SVG 1.1//EN" "http://www.w3.org/Graphics/SVG/1.1/DTD/svg11.dtd">
<svg xmlns="http://www.w3.org/2000/svg" version="1.1" width="64px" height="64px" style="shape-rendering:geometricPrecision; text-rendering:geometricPrecision; image-rendering:optimizeQuality; fill-rule:evenodd; clip-rule:evenodd" xmlns:xlink="http://www.w3.org/1999/xlink">
<g><path style="opacity:0.813" fill="#1d6aff" d="M 40.5,6.5 C 39.1667,7.16667 37.8333,7.83333 36.5,8.5C 33.5,8.5 30.5,8.5 27.5,8.5C 25.7354,7.53862 23.7354,7.20528 21.5,7.5C 27.5992,5.23319 33.9325,4.89985 40.5,6.5 Z"/></g>
<g><path style="opacity:0.718" fill="#2364ff" d="M 21.5,7.5 C 23.7354,7.20528 25.7354,7.53862 27.5,8.5C 25.2972,8.60357 23.2972,9.27024 21.5,10.5C 20.4324,9.56552 19.099,9.23219 17.5,9.5C 18.287,7.89578 19.6203,7.22911 21.5,7.5 Z"/></g>
<g><path style="opacity:0.779" fill="#2460ff" d="M 40.5,6.5 C 41.9952,6.98869 43.3285,7.65536 44.5,8.5C 43.5,9.16667 42.5,9.83333 41.5,10.5C 39.8333,9.83333 38.1667,9.16667 36.5,8.5C 37.8333,7.83333 39.1667,7.16667 40.5,6.5 Z"/></g>
<g><path style="opacity:0.803" fill="#2c64ff" d="M 17.5,9.5 C 19.099,9.23219 20.4324,9.56552 21.5,10.5C 19.2279,11.4411 17.2279,12.7745 15.5,14.5C 14.791,13.596 13.791,13.2627 12.5,13.5C 13.5846,11.4131 15.2512,10.0798 17.5,9.5 Z"/></g>
<g><path style="opacity:0.674" fill="#2b65ff" d="M 44.5,8.5 C 47.1092,9.44306 49.1092,11.1097 50.5,13.5C 49.1667,13.5 47.8333,13.5 46.5,13.5C 44.9991,12.2485 43.3325,11.2485 41.5,10.5C 42.5,9.83333 43.5,9.16667 44.5,8.5 Z"/></g>
<g><path style="opacity:0.863" fill="#2e64ff" d="M 40.5,13.5 C 37.6146,13.1936 34.9479,13.5269 32.5,14.5C 31.8333,14.5 31.1667,14.5 30.5,14.5C 28.0521,13.5269 25.3854,13.1936 22.5,13.5C 22.9175,12.7784 23.5842,12.2784 24.5,12C 29.1667,11.3333 33.8333,11.3333 38.5,12C 39.4158,12.2784 40.0825,12.7784 40.5,13.5 Z"/></g>
<g><path style="opacity:0.728" fill="#3760ff" d="M 22.5,13.5 C 25.3854,13.1936 28.0521,13.5269 30.5,14.5C 26.8053,14.3502 23.472,15.3502 20.5,17.5C 19.8333,16.8333 19.1667,16.1667 18.5,15.5C 19.6049,14.3995 20.9382,13.7329 22.5,13.5 Z"/></g>
<g><path style="opacity:0.651" fill="#365dff" d="M 32.5,14.5 C 34.9479,13.5269 37.6146,13.1936 40.5,13.5C 42.0618,13.7329 43.3951,14.3995 44.5,15.5C 43.791,16.404 42.791,16.7373 41.5,16.5C 38.5979,15.4222 35.5979,14.7556 32.5,14.5 Z"/></g>
<g><path style="opacity:0.807" fill="#3c5bff" d="M 12.5,13.5 C 13.791,13.2627 14.791,13.596 15.5,14.5C 14.1667,16.1667 12.8333,17.8333 11.5,19.5C 10.3652,18.8973 9.36524,18.5639 8.5,18.5C 9.1237,16.246 10.457,14.5794 12.5,13.5 Z"/></g>
<g><path style="opacity:0.804" fill="#3e5bff" d="M 46.5,13.5 C 47.8333,13.5 49.1667,13.5 50.5,13.5C 52.8218,14.8021 54.1551,16.8021 54.5,19.5C 53.0755,17.9689 52.4088,18.3023 52.5,20.5C 50.5293,18.1918 48.5293,15.8585 46.5,13.5 Z"/></g>
<g><path style="opacity:0.716" fill="#4856ff" d="M 44.5,15.5 C 47.2768,17.9505 49.2768,20.9505 50.5,24.5C 49.391,24.5569 48.391,24.8902 47.5,25.5C 46.3105,21.974 44.3105,18.974 41.5,16.5C 42.791,16.7373 43.791,16.404 44.5,15.5 Z"/></g>
<g><path style="opacity:0.698" fill="#4b57ff" d="M 18.5,15.5 C 19.1667,16.1667 19.8333,16.8333 20.5,17.5C 18.0152,19.6523 16.3485,22.3189 15.5,25.5C 14.1667,25.5 12.8333,25.5 11.5,25.5C 13.0875,21.5899 15.4208,18.2565 18.5,15.5 Z"/></g>
<g><path style="opacity:0.646" fill="#4f55ff" d="M 54.5,19.5 C 55.9313,20.7804 56.5979,22.4471 56.5,24.5C 55.5,24.5 54.5,24.5 53.5,24.5C 53.1667,23.1667 52.8333,21.8333 52.5,20.5C 52.4088,18.3023 53.0755,17.9689 54.5,19.5 Z"/></g>
<g><path style="opacity:0.963" fill="#4e53ff" d="M 8.5,18.5 C 9.36524,18.5639 10.3652,18.8973 11.5,19.5C 10.5592,21.0495 9.89254,22.7162 9.5,24.5C 8.5,24.5 7.5,24.5 6.5,24.5C 6.59495,22.2143 7.26162,20.2143 8.5,18.5 Z"/></g>
<g><path style="opacity:0.911" fill="#82c1ff" d="M 31.5,26.5 C 28.8333,26.5 26.1667,26.5 23.5,26.5C 23.5,25.5 23.5,24.5 23.5,23.5C 26.6489,23.4152 29.3155,24.4152 31.5,26.5 Z"/></g>
<g><path style="opacity:0.943" fill="#93beff" d="M 23.5,26.5 C 26.1667,26.5 28.8333,26.5 31.5,26.5C 33.8185,26.9925 35.8185,27.9925 37.5,29.5C 32.8333,29.5 28.1667,29.5 23.5,29.5C 23.5,28.5 23.5,27.5 23.5,26.5 Z"/></g>
<g><path style="opacity:0.951" fill="#654cff" d="M 6.5,24.5 C 7.5,24.5 8.5,24.5 9.5,24.5C 8.61197,27.0545 8.27863,29.7212 8.5,32.5C 7.77765,31.4489 6.77765,30.7822 5.5,30.5C 5.20528,28.2646 5.53862,26.2646 6.5,24.5 Z"/></g>
<g><path style="opacity:0.791" fill="#674dff" d="M 11.5,25.5 C 12.8333,25.5 14.1667,25.5 15.5,25.5C 14.6314,27.717 14.298,30.0504 14.5,32.5C 13.7777,31.4489 12.7777,30.7822 11.5,30.5C 11.5,28.8333 11.5,27.1667 11.5,25.5 Z"/></g>
<g><path style="opacity:0.521" fill="#6a49ff" d="M 50.5,24.5 C 51.4834,28.2984 51.8168,32.2984 51.5,36.5C 50.5,36.5 49.5,36.5 48.5,36.5C 48.756,32.7307 48.4227,29.0641 47.5,25.5C 48.391,24.8902 49.391,24.5569 50.5,24.5 Z"/></g>
<g><path style="opacity:0.986" fill="#a5b9ff" d="M 23.5,29.5 C 28.1667,29.5 32.8333,29.5 37.5,29.5C 38.8333,29.5 39.5,30.1667 39.5,31.5C 34.1667,31.5 28.8333,31.5 23.5,31.5C 23.5,30.8333 23.5,30.1667 23.5,29.5 Z"/></g>
<g><path style="opacity:0.667" fill="#664aff" d="M 53.5,24.5 C 54.5,24.5 55.5,24.5 56.5,24.5C 57.4731,26.9479 57.8064,29.6146 57.5,32.5C 56.391,32.5569 55.391,32.8902 54.5,33.5C 54.7359,30.3915 54.4025,27.3915 53.5,24.5 Z"/></g>
<g><path style="opacity:0.973" fill="#b2b7ff" d="M 23.5,31.5 C 28.8333,31.5 34.1667,31.5 39.5,31.5C 39.1898,33.1436 38.1898,34.1436 36.5,34.5C 32.3656,33.5151 28.0323,33.1818 23.5,33.5C 23.5,32.8333 23.5,32.1667 23.5,31.5 Z"/></g>
<g><path style="opacity:0.546" fill="#7644fe" d="M 11.5,30.5 C 12.7777,30.7822 13.7777,31.4489 14.5,32.5C 14.5,33.8333 14.5,35.1667 14.5,36.5C 13.5,36.5 12.5,36.5 11.5,36.5C 11.5,34.5 11.5,32.5 11.5,30.5 Z"/></g>
<g><path style="opacity:0.943" fill="#c0b4ff" d="M 23.5,33.5 C 28.0323,33.1818 32.3656,33.5151 36.5,34.5C 35.1667,35.1667 33.8333,35.8333 32.5,36.5C 29.7131,35.5233 26.7131,35.19 23.5,35.5C 23.5,34.8333 23.5,34.1667 23.5,33.5 Z"/></g>
<g><path style="opacity:0.675" fill="#7a43fe" d="M 57.5,32.5 C 57.7947,34.7354 57.4614,36.7354 56.5,38.5C 55.5084,38.6716 54.8417,38.3382 54.5,37.5C 54.5,36.1667 54.5,34.8333 54.5,33.5C 55.391,32.8902 56.391,32.5569 57.5,32.5 Z"/></g>
<g><path style="opacity:0.688" fill="#7b43fe" d="M 5.5,30.5 C 6.77765,30.7822 7.77765,31.4489 8.5,32.5C 8.5,34.1667 8.5,35.8333 8.5,37.5C 8.15829,38.3382 7.49162,38.6716 6.5,38.5C 5.52693,36.0521 5.1936,33.3854 5.5,30.5 Z"/></g>
<g><path style="opacity:0.904" fill="#d2b0ff" d="M 23.5,35.5 C 26.7131,35.19 29.7131,35.5233 32.5,36.5C 29.7916,38.3531 26.7916,39.3531 23.5,39.5C 23.5,38.1667 23.5,36.8333 23.5,35.5 Z"/></g>
<g><path style="opacity:0.717" fill="#8b3fff" d="M 11.5,36.5 C 12.5,36.5 13.5,36.5 14.5,36.5C 15.5375,37.9303 16.2041,39.597 16.5,41.5C 15.5,41.5 14.5,41.5 13.5,41.5C 12.5592,39.9505 11.8925,38.2838 11.5,36.5 Z"/></g>
<g><path style="opacity:0.703" fill="#913bff" d="M 8.5,37.5 C 9.48615,39.4261 10.4861,41.4261 11.5,43.5C 10.1667,43.5 8.83333,43.5 7.5,43.5C 6.962,41.8828 6.62867,40.2161 6.5,38.5C 7.49162,38.6716 8.15829,38.3382 8.5,37.5 Z"/></g>
<g><path style="opacity:0.773" fill="#8d3fff" d="M 48.5,36.5 C 49.5,36.5 50.5,36.5 51.5,36.5C 51.0075,38.8185 50.0075,40.8185 48.5,42.5C 47.8333,41.8333 47.1667,41.1667 46.5,40.5C 46.9887,39.0048 47.6554,37.6715 48.5,36.5 Z"/></g>
<g><path style="opacity:0.832" fill="#9338fe" d="M 13.5,41.5 C 14.5,41.5 15.5,41.5 16.5,41.5C 18.1667,42.5 19.5,43.8333 20.5,45.5C 19.4721,45.9258 18.1388,45.9258 16.5,45.5C 15.5116,44.205 14.5116,42.8717 13.5,41.5 Z"/></g>
<g><path style="opacity:0.735" fill="#9238ff" d="M 54.5,37.5 C 54.8417,38.3382 55.5084,38.6716 56.5,38.5C 56.2927,41.2406 55.2927,43.5739 53.5,45.5C 52.2022,46.1157 51.2022,46.1157 50.5,45.5C 51.866,42.768 53.1993,40.1013 54.5,37.5 Z"/></g>
<g><path style="opacity:0.638" fill="#9e33ff" d="M 7.5,43.5 C 8.83333,43.5 10.1667,43.5 11.5,43.5C 12.1667,44.5 12.8333,45.5 13.5,46.5C 12.791,47.404 11.791,47.7373 10.5,47.5C 9.51163,46.205 8.51163,44.8717 7.5,43.5 Z"/></g>
<g><path style="opacity:0.752" fill="#9d39ff" d="M 46.5,40.5 C 47.1667,41.1667 47.8333,41.8333 48.5,42.5C 47.8763,44.754 46.543,46.4206 44.5,47.5C 44.5,46.1667 43.8333,45.5 42.5,45.5C 43.8637,43.8089 45.197,42.1423 46.5,40.5 Z"/></g>
<g><path style="opacity:0.775" fill="#a334ff" d="M 16.5,45.5 C 18.1388,45.9258 19.4721,45.9258 20.5,45.5C 22.0495,46.4408 23.7162,47.1075 25.5,47.5C 24.0813,48.4511 22.4147,48.7845 20.5,48.5C 18.7697,47.9744 17.4363,46.9744 16.5,45.5 Z"/></g>
<g><path style="opacity:0.755" fill="#ac2fff" d="M 42.5,45.5 C 43.8333,45.5 44.5,46.1667 44.5,47.5C 42.9991,48.7515 41.3325,49.7515 39.5,50.5C 37.8333,49.8333 36.1667,49.1667 34.5,48.5C 37.3554,47.8832 40.0221,46.8832 42.5,45.5 Z"/></g>
<g><path style="opacity:0.611" fill="#a933ff" d="M 50.5,45.5 C 51.2022,46.1157 52.2022,46.1157 53.5,45.5C 52.9202,47.7488 51.5869,49.4154 49.5,50.5C 48.791,49.596 47.791,49.2627 46.5,49.5C 47.5,47.8333 48.8333,46.5 50.5,45.5 Z"/></g>
<g><path style="opacity:0.681" fill="#af2eff" d="M 13.5,46.5 C 16.2382,49.2463 19.2382,51.5797 22.5,53.5C 20.901,53.2322 19.5676,53.5655 18.5,54.5C 15.2157,52.883 12.5491,50.5497 10.5,47.5C 11.791,47.7373 12.791,47.404 13.5,46.5 Z"/></g>
<g><path style="opacity:0.843" fill="#a92cff" d="M 25.5,47.5 C 28.3915,48.4025 31.3915,48.7359 34.5,48.5C 36.1667,49.1667 37.8333,49.8333 39.5,50.5C 34.5842,51.6111 29.5842,51.7777 24.5,51C 22.9336,50.3918 21.6002,49.5585 20.5,48.5C 22.4147,48.7845 24.0813,48.4511 25.5,47.5 Z"/></g>
<g><path style="opacity:0.814" fill="#af2bff" d="M 46.5,49.5 C 47.791,49.2627 48.791,49.596 49.5,50.5C 48.7377,52.2624 47.4044,53.2624 45.5,53.5C 43.8333,53.5 42.1667,53.5 40.5,53.5C 42.4632,52.1798 44.4632,50.8465 46.5,49.5 Z"/></g>
<g><path style="opacity:0.652" fill="#bc26ff" d="M 18.5,54.5 C 19.5676,53.5655 20.901,53.2322 22.5,53.5C 25.1272,54.0916 27.7938,54.4249 30.5,54.5C 30.5,54.8333 30.5,55.1667 30.5,55.5C 27.5,55.5 24.5,55.5 21.5,55.5C 20.391,55.4431 19.391,55.1098 18.5,54.5 Z"/></g>
<g><path style="opacity:0.626" fill="#bb27ff" d="M 40.5,53.5 C 42.1667,53.5 43.8333,53.5 45.5,53.5C 44.0351,54.7368 42.3684,55.7368 40.5,56.5C 37.3752,55.5206 34.0419,55.1872 30.5,55.5C 30.5,55.1667 30.5,54.8333 30.5,54.5C 33.8806,54.5405 37.2139,54.2071 40.5,53.5 Z"/></g>
<g><path style="opacity:0.959" fill="#be25ff" d="M 21.5,55.5 C 24.5,55.5 27.5,55.5 30.5,55.5C 34.0419,55.1872 37.3752,55.5206 40.5,56.5C 33.9325,58.1001 27.5992,57.7668 21.5,55.5 Z"/></g>
</svg>
