<?xml version="1.0" encoding="UTF-8"?>
<!DOCTYPE svg PUBLIC "-//W3C//DTD SVG 1.1//EN" "http://www.w3.org/Graphics/SVG/1.1/DTD/svg11.dtd">
<svg xmlns="http://www.w3.org/2000/svg" version="1.1" width="64px" height="64px" style="shape-rendering:geometricPrecision; text-rendering:geometricPrecision; image-rendering:optimizeQuality; fill-rule:evenodd; clip-rule:evenodd" xmlns:xlink="http://www.w3.org/1999/xlink">
<g><path style="opacity:0.781" fill="#2765ff" d="M 47.5,12.5 C 44.9407,12.1984 42.6074,12.5318 40.5,13.5C 37.7939,13.6878 35.4605,14.6878 33.5,16.5C 32.5,16.5 31.5,16.5 30.5,16.5C 34.3722,10.8531 39.7055,9.01976 46.5,11C 47.056,11.3826 47.3893,11.8826 47.5,12.5 Z"/></g>
<g><path style="opacity:0.664" fill="#2569ff" d="M 55.5,13.5 C 52.9407,13.8016 50.6074,13.4682 48.5,12.5C 51.1667,11.8333 53.8333,11.1667 56.5,10.5C 56.7373,11.791 56.404,12.791 55.5,13.5 Z"/></g>
<g><path style="opacity:0.849" fill="#2b64ff" d="M 13.5,14.5 C 11.7354,15.4614 9.73535,15.7947 7.5,15.5C 9.0077,10.7212 11.0077,10.3879 13.5,14.5 Z"/></g>
<g><path style="opacity:0.92" fill="#2c63ff" d="M 40.5,13.5 C 42.6074,12.5318 44.9407,12.1984 47.5,12.5C 47.8333,12.5 48.1667,12.5 48.5,12.5C 50.6074,13.4682 52.9407,13.8016 55.5,13.5C 56.1667,14.1667 56.8333,14.8333 57.5,15.5C 55.1667,15.5 52.8333,15.5 50.5,15.5C 49.8333,15.5 49.5,15.8333 49.5,16.5C 46.8174,14.6643 43.8174,13.6643 40.5,13.5 Z"/></g>
<g><path style="opacity:0.968" fill="#3a5eff" d="M 50.5,15.5 C 52.8333,15.5 55.1667,15.5 57.5,15.5C 57.7373,16.791 57.404,17.791 56.5,18.5C 54.1667,18.5 51.8333,18.5 49.5,18.5C 49.5,17.8333 49.5,17.1667 49.5,16.5C 50.1667,16.5 50.5,16.1667 50.5,15.5 Z"/></g>
<g><path style="opacity:0.661" fill="#3b5cff" d="M 13.5,14.5 C 15.1667,15.5 16.5,16.8333 17.5,18.5C 16.1667,18.5 14.8333,18.5 13.5,18.5C 12.5416,18.0472 11.7083,17.3805 11,16.5C 10.5172,17.448 10.3505,18.448 10.5,19.5C 9.39105,19.5569 8.39105,19.8902 7.5,20.5C 7.5,18.8333 7.5,17.1667 7.5,15.5C 9.73535,15.7947 11.7354,15.4614 13.5,14.5 Z"/></g>
<g><path style="opacity:0.944" fill="#96bdfe" d="M 43.5,19.5 C 42.1667,19.5 40.8333,19.5 39.5,19.5C 39.62,18.4138 40.2867,17.7472 41.5,17.5C 42.7133,17.7472 43.38,18.4138 43.5,19.5 Z"/></g>
<g><path style="opacity:0.858" fill="#4656ff" d="M 13.5,18.5 C 14.8333,18.5 16.1667,18.5 17.5,18.5C 20.7036,19.9009 24.0369,20.9009 27.5,21.5C 25.3926,22.4682 23.0593,22.8016 20.5,22.5C 17.6689,21.9213 15.3356,20.588 13.5,18.5 Z"/></g>
<g><path style="opacity:0.586" fill="#daadfe" d="M 39.5,19.5 C 40.8333,19.5 42.1667,19.5 43.5,19.5C 43.38,20.5862 42.7133,21.2528 41.5,21.5C 40.2867,21.2528 39.62,20.5862 39.5,19.5 Z"/></g>
<g><path style="opacity:0.687" fill="#4858ff" d="M 30.5,16.5 C 31.5,16.5 32.5,16.5 33.5,16.5C 32.7814,18.7638 32.448,21.0971 32.5,23.5C 31.3652,22.8973 30.3652,22.5639 29.5,22.5C 29.3253,20.3792 29.6586,18.3792 30.5,16.5 Z"/></g>
<g><path style="opacity:0.582" fill="#4858ff" d="M 49.5,18.5 C 51.8333,18.5 54.1667,18.5 56.5,18.5C 55.5,20.1667 54.1667,21.5 52.5,22.5C 51.391,22.5569 50.391,22.8902 49.5,23.5C 50.0715,21.64 50.0715,19.9733 49.5,18.5 Z"/></g>
<g><path style="opacity:0.754" fill="#5352ff" d="M 27.5,21.5 C 28.1667,21.8333 28.8333,22.1667 29.5,22.5C 30.3652,22.5639 31.3652,22.8973 32.5,23.5C 32.2089,24.6491 31.3756,25.3158 30,25.5C 26.5519,25.02 23.3852,24.02 20.5,22.5C 23.0593,22.8016 25.3926,22.4682 27.5,21.5 Z"/></g>
<g><path style="opacity:0.83" fill="#5453ff" d="M 10.5,19.5 C 10.9752,21.7837 11.9752,23.7837 13.5,25.5C 11.5,25.5 9.5,25.5 7.5,25.5C 8.56205,23.9008 8.56205,22.2341 7.5,20.5C 8.39105,19.8902 9.39105,19.5569 10.5,19.5 Z"/></g>
<g><path style="opacity:0.922" fill="#614dff" d="M 7.5,25.5 C 9.5,25.5 11.5,25.5 13.5,25.5C 14.404,26.209 14.7373,27.209 14.5,28.5C 13.1667,28.5 11.8333,28.5 10.5,28.5C 9.5,28.5 8.5,28.5 7.5,28.5C 7.5,27.5 7.5,26.5 7.5,25.5 Z"/></g>
<g><path style="opacity:0.875" fill="#604eff" d="M 52.5,22.5 C 52.8016,25.0593 52.4682,27.3926 51.5,29.5C 51.1583,28.6618 50.4916,28.3284 49.5,28.5C 49.5,26.8333 49.5,25.1667 49.5,23.5C 50.391,22.8902 51.391,22.5569 52.5,22.5 Z"/></g>
<g><path style="opacity:0.605" fill="#7545ff" d="M 7.5,28.5 C 8.5,28.5 9.5,28.5 10.5,28.5C 11.8333,30.1667 13.1667,31.8333 14.5,33.5C 13.1667,33.5 11.8333,33.5 10.5,33.5C 8.74973,32.3406 7.74973,30.674 7.5,28.5 Z"/></g>
<g><path style="opacity:0.644" fill="#7d3fff" d="M 47.5,32.5 C 46.6618,32.8417 46.3284,33.5084 46.5,34.5C 45.6618,34.8417 45.3284,35.5084 45.5,36.5C 45.1667,36.5 44.8333,36.5 44.5,36.5C 43.5,36.5 42.5,36.5 41.5,36.5C 42.4026,34.3635 43.5693,32.3635 45,30.5C 45.9947,31.0659 46.828,31.7326 47.5,32.5 Z"/></g>
<g><path style="opacity:0.829" fill="#7943ff" d="M 49.5,28.5 C 50.4916,28.3284 51.1583,28.6618 51.5,29.5C 51.7406,31.8984 51.0739,33.8984 49.5,35.5C 48.5084,35.6716 47.8417,35.3382 47.5,34.5C 47.5,33.8333 47.5,33.1667 47.5,32.5C 48.1667,31.1667 48.8333,29.8333 49.5,28.5 Z"/></g>
<g><path style="opacity:0.878" fill="#843eff" d="M 10.5,33.5 C 11.8333,33.5 13.1667,33.5 14.5,33.5C 18.3371,33.9124 19.0038,35.2457 16.5,37.5C 14.7354,36.5386 12.7354,36.2053 10.5,36.5C 10.5,35.5 10.5,34.5 10.5,33.5 Z"/></g>
<g><path style="opacity:0.653" fill="#9735ff" d="M 10.5,36.5 C 12.7354,36.2053 14.7354,36.5386 16.5,37.5C 16.0618,37.4346 15.7284,37.6012 15.5,38C 16.4709,39.4813 17.8042,40.3146 19.5,40.5C 18.0813,41.4511 16.4147,41.7845 14.5,41.5C 12.457,40.4206 11.1237,38.754 10.5,36.5 Z"/></g>
<g><path style="opacity:0.786" fill="#953aff" d="M 46.5,34.5 C 46.8333,34.5 47.1667,34.5 47.5,34.5C 47.8417,35.3382 48.5084,35.6716 49.5,35.5C 49.0248,37.7837 48.0248,39.7837 46.5,41.5C 45.209,41.7373 44.209,41.404 43.5,40.5C 43.1667,39.1667 42.8333,39.1667 42.5,40.5C 42.1667,40.5 41.8333,40.5 41.5,40.5C 40.8333,39.8333 40.1667,39.1667 39.5,38.5C 39.8333,37.5 40.5,36.8333 41.5,36.5C 42.5,36.5 43.5,36.5 44.5,36.5C 44.8333,37.8333 45.1667,37.8333 45.5,36.5C 46.3382,36.1583 46.6716,35.4916 46.5,34.5 Z"/></g>
<g><path style="opacity:0.754" fill="#a630ff" d="M 19.5,40.5 C 20.9008,40.9709 22.2342,41.6376 23.5,42.5C 23.1445,43.5223 22.4778,44.189 21.5,44.5C 19.8333,44.5 18.1667,44.5 16.5,44.5C 16.2178,43.2223 15.5511,42.2223 14.5,41.5C 16.4147,41.7845 18.0813,41.4511 19.5,40.5 Z"/></g>
<g><path style="opacity:0.784" fill="#a730ff" d="M 39.5,38.5 C 40.1667,39.1667 40.8333,39.8333 41.5,40.5C 41.5,40.8333 41.5,41.1667 41.5,41.5C 40.8333,41.5 40.5,41.8333 40.5,42.5C 39.8333,42.5 39.5,42.8333 39.5,43.5C 38.8333,43.5 38.5,43.8333 38.5,44.5C 37.8333,44.5 37.1667,44.5 36.5,44.5C 34.901,44.7678 33.5676,44.4345 32.5,43.5C 35.1117,42.2213 37.4451,40.5547 39.5,38.5 Z"/></g>
<g><path style="opacity:0.633" fill="#a630ff" d="M 42.5,40.5 C 42.8333,40.5 43.1667,40.5 43.5,40.5C 44.209,41.404 45.209,41.7373 46.5,41.5C 45.1667,43.5 43.5,45.1667 41.5,46.5C 40.791,45.596 39.791,45.2627 38.5,45.5C 38.5,45.1667 38.5,44.8333 38.5,44.5C 39.1667,44.5 39.5,44.1667 39.5,43.5C 40.1667,43.5 40.5,43.1667 40.5,42.5C 41.1667,42.5 41.5,42.1667 41.5,41.5C 42.1667,41.5 42.5,41.1667 42.5,40.5 Z"/></g>
<g><path style="opacity:0.759" fill="#ad30ff" d="M 32.5,43.5 C 33.5676,44.4345 34.901,44.7678 36.5,44.5C 36.5,44.8333 36.5,45.1667 36.5,45.5C 35.8333,45.5 35.5,45.8333 35.5,46.5C 35.1667,46.5 34.8333,46.5 34.5,46.5C 34.1667,46.5 33.8333,46.5 33.5,46.5C 32.8333,46.5 32.5,46.8333 32.5,47.5C 28.5606,46.2691 28.5606,44.9358 32.5,43.5 Z"/></g>
<g><path style="opacity:0.792" fill="#b12bff" d="M 16.5,44.5 C 18.1667,44.5 19.8333,44.5 21.5,44.5C 19.5739,46.2927 17.2406,47.2927 14.5,47.5C 11.5,47.5 8.5,47.5 5.5,47.5C 8.6917,45.611 12.3584,44.611 16.5,44.5 Z"/></g>
<g><path style="opacity:0.638" fill="#b429ff" d="M 36.5,45.5 C 37.1667,45.5 37.8333,45.5 38.5,45.5C 39.791,45.2627 40.791,45.596 41.5,46.5C 40.5,47.1667 39.5,47.8333 38.5,48.5C 36.5853,48.7845 34.9187,48.4511 33.5,47.5C 34.1667,47.5 34.5,47.1667 34.5,46.5C 34.8333,46.5 35.1667,46.5 35.5,46.5C 36.1667,46.5 36.5,46.1667 36.5,45.5 Z"/></g>
<g><path style="opacity:0.685" fill="#b826ff" d="M 5.5,47.5 C 8.5,47.5 11.5,47.5 14.5,47.5C 14.5,47.8333 14.5,48.1667 14.5,48.5C 12.7354,49.4614 10.7354,49.7947 8.5,49.5C 6.97306,49.573 5.97306,48.9063 5.5,47.5 Z"/></g>
<g><path style="opacity:0.776" fill="#c422ff" d="M 14.5,48.5 C 17.728,49.4137 21.0613,49.7471 24.5,49.5C 27.2869,50.4767 30.2869,50.81 33.5,50.5C 30.1354,52.0392 26.4687,52.7058 22.5,52.5C 17.4066,52.9075 12.74,51.9075 8.5,49.5C 10.7354,49.7947 12.7354,49.4614 14.5,48.5 Z"/></g>
<g><path style="opacity:0.684" fill="#c423ff" d="M 33.5,46.5 C 33.5,46.8333 33.5,47.1667 33.5,47.5C 34.9187,48.4511 36.5853,48.7845 38.5,48.5C 37.2196,49.9313 35.5529,50.5979 33.5,50.5C 30.2869,50.81 27.2869,50.4767 24.5,49.5C 27.4951,49.7062 30.1617,49.0395 32.5,47.5C 32.5,46.8333 32.8333,46.5 33.5,46.5 Z"/></g>
</svg>
