<?xml version="1.0" encoding="UTF-8"?>
<!DOCTYPE svg PUBLIC "-//W3C//DTD SVG 1.1//EN" "http://www.w3.org/Graphics/SVG/1.1/DTD/svg11.dtd">
<svg xmlns="http://www.w3.org/2000/svg" version="1.1" width="64px" height="64px" style="shape-rendering:geometricPrecision; text-rendering:geometricPrecision; image-rendering:optimizeQuality; fill-rule:evenodd; clip-rule:evenodd" xmlns:xlink="http://www.w3.org/1999/xlink">
<g><path style="opacity:0.776" fill="#2c66ff" d="M 45.5,15.5 C 44.5,15.5 43.5,15.5 42.5,15.5C 35.7756,9.26068 28.7756,8.92734 21.5,14.5C 20.1667,14.5 18.8333,14.5 17.5,14.5C 24.1875,5.31374 32.1875,3.81374 41.5,10C 43.4641,11.451 44.7974,13.2843 45.5,15.5 Z"/></g>
<g><path style="opacity:0.897" fill="#445aff" d="M 17.5,14.5 C 18.8333,14.5 20.1667,14.5 21.5,14.5C 21.3893,15.1174 21.056,15.6174 20.5,16C 26.1569,16.4994 31.8236,16.6661 37.5,16.5C 37.5,17.8333 37.5,19.1667 37.5,20.5C 36.391,20.4431 35.391,20.1098 34.5,19.5C 28.3471,18.3467 22.0137,18.18 15.5,19C 14.944,19.3826 14.6107,19.8826 14.5,20.5C 13.5,19.1667 12.5,19.1667 11.5,20.5C 11.3505,19.448 11.5172,18.448 12,17.5C 14.2092,17.0108 16.0425,16.0108 17.5,14.5 Z"/></g>
<g><path style="opacity:0.875" fill="#5851ff" d="M 14.5,20.5 C 14.6107,21.1174 14.944,21.6174 15.5,22C 20.5,22.6667 25.5,22.6667 30.5,22C 32.133,21.5204 33.4664,20.6871 34.5,19.5C 35.391,20.1098 36.391,20.4431 37.5,20.5C 38.8333,20.5 40.1667,20.5 41.5,20.5C 41.5,21.5 41.5,22.5 41.5,23.5C 40.8333,23.5 40.1667,23.5 39.5,23.5C 37.6898,22.0449 36.0231,22.2116 34.5,24C 30.8484,24.4986 27.1817,24.6653 23.5,24.5C 23.5,25.8333 23.5,27.1667 23.5,28.5C 21.901,28.2322 20.5676,28.5655 19.5,29.5C 18.8333,29.5 18.1667,29.5 17.5,29.5C 17.5654,29.0618 17.3988,28.7284 17,28.5C 16.0053,29.0659 15.172,29.7326 14.5,30.5C 13.609,31.1098 12.609,31.4431 11.5,31.5C 11.5952,28.7277 12.9285,26.7277 15.5,25.5C 12.6582,24.9955 11.3249,23.3289 11.5,20.5C 12.5,19.1667 13.5,19.1667 14.5,20.5 Z M 17.5,24.5 C 21.5878,24.2184 22.0878,24.8851 19,26.5C 17.9701,26.1639 17.4701,25.4972 17.5,24.5 Z"/></g>
<g><path style="opacity:0.891" fill="#5653ff" d="M 42.5,15.5 C 43.5,15.5 44.5,15.5 45.5,15.5C 46.7638,19.5006 48.0972,23.5006 49.5,27.5C 46.2869,27.19 43.2869,27.5233 40.5,28.5C 39.5489,27.0813 39.2155,25.4147 39.5,23.5C 40.1667,23.5 40.8333,23.5 41.5,23.5C 41.6941,25.9118 43.0274,26.9118 45.5,26.5C 45.1279,22.628 44.1279,18.9613 42.5,15.5 Z"/></g>
<g><path style="opacity:0.957" fill="#7bc3ff" d="M 28.5,30.5 C 27.0813,31.4511 25.4147,31.7845 23.5,31.5C 24.8786,29.4031 26.5453,29.0698 28.5,30.5 Z"/></g>
<g><path style="opacity:0.957" fill="#7bc3ff" d="M 38.5,30.5 C 37.0813,31.4511 35.4147,31.7845 33.5,31.5C 34.8786,29.4031 36.5453,29.0698 38.5,30.5 Z"/></g>
<g><path style="opacity:0.882" fill="#a2bafe" d="M 28.5,30.5 C 29.404,31.209 29.7373,32.209 29.5,33.5C 27.5,33.5 25.5,33.5 23.5,33.5C 23.5,32.8333 23.5,32.1667 23.5,31.5C 25.4147,31.7845 27.0813,31.4511 28.5,30.5 Z"/></g>
<g><path style="opacity:0.882" fill="#a2bafe" d="M 38.5,30.5 C 39.404,31.209 39.7373,32.209 39.5,33.5C 37.5,33.5 35.5,33.5 33.5,33.5C 33.5,32.8333 33.5,32.1667 33.5,31.5C 35.4147,31.7845 37.0813,31.4511 38.5,30.5 Z"/></g>
<g><path style="opacity:0.812" fill="#7246fe" d="M 40.5,28.5 C 43.2869,27.5233 46.2869,27.19 49.5,27.5C 50.9931,28.3121 51.6598,29.6455 51.5,31.5C 51.6598,33.3545 50.9931,34.6879 49.5,35.5C 47.1667,35.5 44.8333,35.5 42.5,35.5C 43.2186,33.2362 43.552,30.9029 43.5,28.5C 42.5,28.5 41.5,28.5 40.5,28.5 Z M 45.5,28.5 C 49.1844,30.2033 49.351,32.2033 46,34.5C 45.6886,33.2575 46.1886,32.2575 47.5,31.5C 46.3881,30.7348 45.7214,29.7348 45.5,28.5 Z"/></g>
<g><path style="opacity:0.227" fill="#d7acfe" d="M 23.5,33.5 C 25.5,33.5 27.5,33.5 29.5,33.5C 27.5,36.1667 25.5,36.1667 23.5,33.5 Z"/></g>
<g><path style="opacity:0.227" fill="#d7acfe" d="M 33.5,33.5 C 35.5,33.5 37.5,33.5 39.5,33.5C 37.5,36.1667 35.5,36.1667 33.5,33.5 Z"/></g>
<g><path style="opacity:0.731" fill="#7f40fe" d="M 17.5,29.5 C 18.1667,29.5 18.8333,29.5 19.5,29.5C 19.7261,33.4069 20.7261,37.0735 22.5,40.5C 20.5,40.5 18.5,40.5 16.5,40.5C 17.2341,39.2921 17.5674,37.9587 17.5,36.5C 13.6509,36.9807 11.6509,35.314 11.5,31.5C 12.609,31.4431 13.609,31.1098 14.5,30.5C 14.4609,32.3588 15.2942,33.6921 17,34.5C 17.3114,33.2575 16.8114,32.2575 15.5,31.5C 16.2427,30.8182 16.9094,30.1515 17.5,29.5 Z"/></g>
<g><path style="opacity:0.919" fill="#8ebffe" d="M 35.5,39.5 C 32.8333,39.5 30.1667,39.5 27.5,39.5C 28.3339,38.2521 29.6672,37.5854 31.5,37.5C 33.3328,37.5854 34.6661,38.2521 35.5,39.5 Z"/></g>
<g><path style="opacity:0.976" fill="#bdb4fe" d="M 27.5,39.5 C 30.1667,39.5 32.8333,39.5 35.5,39.5C 34.6879,40.9931 33.3545,41.6598 31.5,41.5C 29.6455,41.6598 28.3121,40.9931 27.5,39.5 Z"/></g>
<g><path style="opacity:0.699" fill="#9337ff" d="M 42.5,35.5 C 44.8333,35.5 47.1667,35.5 49.5,35.5C 48.4324,36.4345 47.099,36.7678 45.5,36.5C 47.0194,40.7015 49.0194,44.7015 51.5,48.5C 50.5,48.5 49.5,48.5 48.5,48.5C 46.8564,46.5193 45.1897,44.5193 43.5,42.5C 42.1482,43.5244 40.8149,44.5244 39.5,45.5C 38.2921,44.7659 36.9587,44.4326 35.5,44.5C 38.9415,42.3884 41.2748,39.3884 42.5,35.5 Z"/></g>
<g><path style="opacity:0.888" fill="#9935ff" d="M 16.5,40.5 C 18.5,40.5 20.5,40.5 22.5,40.5C 24.1911,41.8637 25.8577,43.197 27.5,44.5C 25.8333,44.5 24.1667,44.5 22.5,44.5C 21.5178,43.8592 20.5178,43.1925 19.5,42.5C 17.3483,44.1619 15.6817,46.1619 14.5,48.5C 13.5,48.5 12.5,48.5 11.5,48.5C 12.6803,45.4604 14.347,42.7937 16.5,40.5 Z"/></g>
<g><path style="opacity:0.844" fill="#a030ff" d="M 22.5,44.5 C 24.1667,44.5 25.8333,44.5 27.5,44.5C 30.1667,44.5 32.8333,44.5 35.5,44.5C 36.9587,44.4326 38.2921,44.7659 39.5,45.5C 37.1934,47.0468 34.5267,47.7135 31.5,47.5C 29.5,47.3333 27.5,47.1667 25.5,47C 24.0577,46.6232 23.0577,45.7899 22.5,44.5 Z"/></g>
<g><path style="opacity:1" fill="#bd26ff" d="M 11.5,48.5 C 12.5,48.5 13.5,48.5 14.5,48.5C 14.7564,50.7925 14.4231,52.9592 13.5,55C 16.1303,55.8446 18.4636,55.3446 20.5,53.5C 23.9756,54.7542 27.6423,55.4209 31.5,55.5C 35.3577,55.4209 39.0244,54.7542 42.5,53.5C 44.5364,55.3446 46.8697,55.8446 49.5,55C 48.5769,52.9592 48.2436,50.7925 48.5,48.5C 49.5,48.5 50.5,48.5 51.5,48.5C 51.5,51.5 51.5,54.5 51.5,57.5C 38.1667,57.5 24.8333,57.5 11.5,57.5C 11.5,54.5 11.5,51.5 11.5,48.5 Z"/></g>
<g><path style="opacity:0.825" fill="#b22bff" d="M 29.5,49.5 C 30.8333,49.5 32.1667,49.5 33.5,49.5C 33.5,50.8333 33.5,52.1667 33.5,53.5C 32.1667,53.5 30.8333,53.5 29.5,53.5C 29.5,52.1667 29.5,50.8333 29.5,49.5 Z"/></g>
</svg>
